<svg xmlns="http://www.w3.org/2000/svg" xmlns:xlink="http://www.w3.org/1999/xlink" width="200" zoomAndPan="magnify" viewBox="0 0 150 149.999998" height="200" preserveAspectRatio="xMidYMid meet" version="1.0"><defs><g/></defs><g fill="#ffffff" fill-opacity="1"><g transform="translate(62.500546, 81.474696)"><g><path d="M 3.8125 -3.3125 C 3.90625 -3.609375 3.75 -3.9375 3.484375 -4.078125 C 3.46875 -4.09375 3.4375 -4.109375 3.421875 -4.109375 C 3.3125 -4.140625 3.1875 -4.140625 3.078125 -4.140625 C 3.046875 -4.140625 3 -4.140625 2.96875 -4.15625 L 2.875 -4.15625 C 2.75 -4.171875 2.625 -4.171875 2.5 -4.1875 C 2.203125 -4.21875 1.890625 -4.265625 1.59375 -4.328125 C 1.578125 -4.328125 1.5625 -4.328125 1.546875 -4.328125 C 1.515625 -4.328125 1.5 -4.328125 1.46875 -4.3125 C 1.265625 -4.359375 1.046875 -4.421875 0.828125 -4.46875 C 0.75 -4.53125 0.671875 -4.546875 0.578125 -4.546875 C 0.359375 -4.546875 0.15625 -4.40625 0.125 -4.1875 C 0.125 -4.1875 0.109375 -4.1875 0.109375 -4.171875 C 0 -4.109375 -0.078125 -4 -0.109375 -3.875 C -0.15625 -3.65625 -0.125 -3.46875 -0.015625 -3.3125 C -0.015625 -3.234375 0 -3.1875 0 -3.125 C 0.078125 -2.90625 0.125 -2.6875 0.171875 -2.421875 C 0.125 -2.375 0.078125 -2.328125 0.046875 -2.265625 C -0.109375 -1.984375 -0.03125 -1.640625 0.25 -1.46875 L 0.328125 -1.421875 C 0.390625 -0.890625 0.390625 -0.328125 0.515625 0.1875 C 0.578125 0.390625 0.75 0.515625 0.953125 0.515625 C 1.03125 0.515625 1.109375 0.515625 1.171875 0.484375 C 1.375 0.390625 1.484375 0.234375 1.546875 0.078125 C 1.859375 -0.15625 1.84375 -0.59375 1.828125 -0.875 L 1.828125 -0.9375 C 1.828125 -1.078125 1.8125 -1.234375 1.796875 -1.390625 C 2.125 -1.375 2.46875 -1.359375 2.828125 -1.3125 C 2.84375 -1.3125 2.875 -1.296875 2.890625 -1.296875 C 3.0625 -1.296875 3.21875 -1.390625 3.328125 -1.53125 C 3.375 -1.59375 3.40625 -1.65625 3.4375 -1.734375 C 3.484375 -1.765625 3.515625 -1.796875 3.5625 -1.859375 C 3.6875 -2.015625 3.734375 -2.234375 3.6875 -2.421875 C 3.640625 -2.546875 3.5625 -2.65625 3.46875 -2.734375 C 3.5 -2.78125 3.546875 -2.859375 3.5625 -2.921875 C 3.6875 -3.015625 3.78125 -3.15625 3.8125 -3.3125 Z M 3.203125 -3.015625 C 3.078125 -3 2.984375 -3.03125 2.890625 -3.078125 L 2.875 -3.078125 C 2.84375 -3.09375 2.828125 -3.09375 2.796875 -3.09375 L 2.390625 -3.125 C 2.109375 -3.15625 1.828125 -3.1875 1.546875 -3.234375 C 1.4375 -3.265625 1.3125 -3.28125 1.1875 -3.3125 C 1.203125 -3.1875 1.328125 -2.765625 1.34375 -2.6875 C 1.546875 -2.703125 1.734375 -2.71875 1.921875 -2.71875 C 2.296875 -2.734375 2.671875 -2.71875 3.046875 -2.671875 C 3.234375 -2.671875 3.421875 -2.546875 3.484375 -2.359375 C 3.546875 -2.125 3.359375 -1.796875 3.078125 -1.828125 C 2.671875 -1.890625 2.265625 -1.90625 1.84375 -1.90625 C 1.734375 -1.90625 1.625 -1.90625 1.515625 -1.90625 C 1.5625 -1.578125 1.625 -1.25 1.625 -0.921875 C 1.625 -0.609375 1.671875 -0.1875 1.3125 -0.03125 C 1.171875 0.03125 1 -0.015625 0.953125 -0.1875 C 0.90625 -0.328125 0.890625 -0.46875 0.90625 -0.59375 C 0.875 -0.671875 0.875 -0.765625 0.859375 -0.84375 C 0.84375 -0.96875 0.828125 -1.09375 0.8125 -1.21875 C 0.796875 -1.4375 0.765625 -1.671875 0.75 -1.890625 C 0.6875 -1.90625 0.640625 -1.921875 0.59375 -1.953125 C 0.421875 -2.078125 0.34375 -2.296875 0.453125 -2.484375 C 0.5 -2.546875 0.5625 -2.609375 0.640625 -2.640625 C 0.578125 -2.9375 0.515625 -3.21875 0.4375 -3.5 C 0.421875 -3.5625 0.421875 -3.625 0.4375 -3.671875 C 0.328125 -3.796875 0.28125 -3.953125 0.3125 -4.15625 C 0.359375 -4.328125 0.59375 -4.40625 0.734375 -4.28125 C 1 -4.21875 1.25 -4.15625 1.5 -4.09375 C 1.515625 -4.109375 1.53125 -4.125 1.546875 -4.125 C 1.859375 -4.0625 2.171875 -4.015625 2.484375 -3.984375 C 2.640625 -3.96875 2.796875 -3.953125 2.953125 -3.9375 C 3.09375 -3.9375 3.234375 -3.953125 3.359375 -3.90625 C 3.5625 -3.828125 3.671875 -3.578125 3.609375 -3.375 C 3.578125 -3.15625 3.40625 -3.015625 3.203125 -3.015625 Z M 0.84375 -4.09375 C 1 -4.03125 1.4375 -4.015625 1.5 -4 L 1.59375 -4 C 1.359375 -4.0625 1 -4.125 0.765625 -4.21875 C 0.796875 -4.1875 0.828125 -4.125 0.84375 -4.09375 Z M 0.84375 -4.09375 "/></g></g></g><g fill="#ffffff" fill-opacity="1"><g transform="translate(66.224029, 81.474696)"><g><path d="M 3.296875 -0.421875 C 3.25 -0.75 3.140625 -1.265625 3.078125 -1.578125 C 3.453125 -1.953125 3.234375 -2.546875 2.84375 -2.671875 C 2.796875 -3.046875 2.78125 -3.421875 2.78125 -3.765625 C 2.78125 -3.859375 2.71875 -3.9375 2.625 -3.953125 C 2.59375 -4.1875 2.4375 -4.34375 2.234375 -4.40625 C 2.125 -4.515625 1.984375 -4.59375 1.828125 -4.59375 C 1.40625 -4.59375 1.28125 -4.21875 1.203125 -4.109375 C 1.046875 -3.96875 0.953125 -3.75 0.875 -3.578125 C 0.734375 -3.203125 0.65625 -3 0.578125 -2.640625 C 0.1875 -2.46875 0.171875 -2.265625 0.125 -2.1875 C 0.109375 -2.171875 -0.09375 -2.046875 -0.125 -1.75 C -0.15625 -1.40625 0.046875 -1.265625 0.234375 -1.046875 C 0.1875 -0.765625 0.125 -0.484375 0.09375 -0.203125 C 0.046875 0.140625 0.203125 0.421875 0.515625 0.5 C 1.03125 0.640625 1.21875 0.09375 1.234375 0.09375 C 1.28125 0.015625 1.34375 0.15625 1.453125 -0.234375 C 1.71875 -0.296875 1.640625 -0.59375 1.734375 -1.09375 C 1.828125 -0.71875 1.953125 -0.171875 2.09375 0.09375 C 2.125 0.15625 2.296875 0.40625 2.359375 0.46875 C 2.609375 0.671875 2.96875 0.578125 3.0625 0.203125 C 3.3125 0.078125 3.3125 -0.234375 3.296875 -0.421875 Z M 2.546875 -0.28125 C 2.421875 -0.3125 2.1875 -1.390625 2.125 -1.625 L 1.640625 -1.609375 C 1.546875 -1.234375 1.46875 -0.875 1.453125 -0.484375 C 1.453125 -0.40625 1.34375 -0.40625 1.34375 -0.484375 C 1.375 -0.859375 1.4375 -1.25 1.546875 -1.609375 L 1.5 -1.609375 C 1.421875 -1.3125 1.3125 -0.671875 1.3125 -0.671875 L 1.28125 -0.390625 C 1.21875 0.1875 0.4375 0.09375 0.515625 -0.484375 C 0.578125 -0.859375 0.640625 -1.234375 0.734375 -1.59375 C 0.671875 -1.59375 0.609375 -1.578125 0.5625 -1.578125 C 0.5625 -1.59375 0.578125 -1.609375 0.5625 -1.625 C 0.15625 -1.734375 0.15625 -2.421875 0.921875 -2.53125 C 1 -2.953125 1.109375 -3.359375 1.265625 -3.75 C 1.375 -3.984375 1.5 -4.375 1.828125 -4.375 C 1.9375 -4.390625 2.0625 -4.3125 2.109375 -4.21875 C 2.28125 -4.203125 2.421875 -4.078125 2.4375 -3.875 C 2.453125 -3.625 2.484375 -3.375 2.515625 -3.125 C 2.515625 -3.109375 2.515625 -3.109375 2.515625 -3.109375 C 2.53125 -3.328125 2.546875 -3.546875 2.5625 -3.75 C 2.578125 -3.828125 2.609375 -2.875 2.65625 -2.5 C 3.125 -2.4375 3.203125 -1.875 2.859375 -1.65625 C 2.9375 -1.28125 3.046875 -0.78125 3.09375 -0.390625 C 3.15625 0.171875 2.703125 0.171875 2.546875 -0.28125 Z M 1.734375 -2.421875 C 1.8125 -2.4375 1.90625 -2.453125 1.984375 -2.453125 C 1.953125 -2.609375 1.9375 -2.78125 1.90625 -2.9375 C 1.84375 -2.78125 1.78125 -2.59375 1.734375 -2.421875 Z M 1.734375 -2.421875 "/></g></g></g><g fill="#ffffff" fill-opacity="1"><g transform="translate(69.562098, 81.474696)"><g><path d="M 3.203125 -4.015625 C 3.203125 -4.03125 3.203125 -4.046875 3.1875 -4.0625 C 3.15625 -4.1875 3.125 -4.34375 3 -4.453125 C 2.953125 -4.515625 2.859375 -4.546875 2.765625 -4.546875 C 2.75 -4.546875 2.734375 -4.546875 2.703125 -4.546875 C 2.609375 -4.578125 2.515625 -4.609375 2.40625 -4.609375 C 2.359375 -4.609375 2.3125 -4.609375 2.28125 -4.59375 C 2.234375 -4.625 2.1875 -4.640625 2.125 -4.640625 C 2.0625 -4.640625 1.984375 -4.609375 1.9375 -4.5625 C 1.890625 -4.5 1.859375 -4.4375 1.875 -4.359375 L 1.875 -4.3125 C 1.8125 -4.3125 1.75 -4.28125 1.71875 -4.234375 C 1.65625 -4.1875 1.625 -4.125 1.640625 -4.046875 C 1.65625 -3.578125 1.625 -3.109375 1.546875 -2.625 L 1.53125 -2.71875 C 1.46875 -3.0625 1.390625 -3.421875 1.28125 -3.78125 C 1.15625 -4.234375 0.890625 -4.5 0.546875 -4.53125 L 0.5 -4.53125 C 0.34375 -4.53125 0.203125 -4.453125 0.125 -4.34375 C 0.078125 -4.28125 0.0625 -4.21875 0.046875 -4.15625 C -0.015625 -4.125 -0.078125 -4.078125 -0.109375 -4.015625 C -0.1875 -3.90625 -0.203125 -3.765625 -0.171875 -3.625 C -0.171875 -3.578125 -0.171875 -3.546875 -0.171875 -3.484375 C -0.1875 -3.4375 -0.203125 -3.390625 -0.203125 -3.34375 C -0.171875 -3.171875 -0.125 -3 -0.09375 -2.84375 L -0.03125 -2.59375 C 0.015625 -2.328125 0.078125 -2.078125 0.109375 -1.828125 C 0.15625 -1.59375 0.203125 -1.34375 0.21875 -1.09375 L 0.234375 -1.03125 L 0.25 -0.859375 C 0.25 -0.796875 0.265625 -0.75 0.265625 -0.703125 L 0.28125 -0.6875 C 0.28125 -0.5625 0.296875 -0.453125 0.28125 -0.34375 C 0.28125 -0.203125 0.34375 -0.0625 0.453125 0.015625 C 0.484375 0.0625 0.484375 0.109375 0.5 0.15625 C 0.578125 0.375 0.78125 0.515625 1 0.515625 C 1.09375 0.515625 1.171875 0.5 1.25 0.453125 C 1.28125 0.453125 1.3125 0.4375 1.328125 0.421875 C 1.359375 0.421875 1.390625 0.40625 1.421875 0.390625 L 1.4375 0.390625 C 1.46875 0.359375 1.5 0.34375 1.53125 0.3125 C 1.59375 0.3125 1.640625 0.28125 1.6875 0.234375 C 1.84375 0.078125 1.984375 -0.109375 2.125 -0.296875 L 2.171875 -0.375 C 2.234375 -0.453125 2.296875 -0.53125 2.34375 -0.625 C 2.40625 -0.703125 2.46875 -0.796875 2.53125 -0.921875 L 2.546875 -0.953125 C 2.5625 -0.984375 2.578125 -1.015625 2.59375 -1.046875 C 2.609375 -1.0625 2.625 -1.078125 2.625 -1.09375 C 2.734375 -1.34375 2.84375 -1.59375 2.9375 -1.84375 C 3.046875 -2.109375 3.109375 -2.421875 3.15625 -2.671875 C 3.21875 -2.984375 3.25 -3.265625 3.25 -3.53125 C 3.25 -3.671875 3.25 -3.859375 3.203125 -4.015625 Z M 3.046875 -3.546875 C 3.046875 -3.265625 3.015625 -2.984375 2.953125 -2.703125 C 2.90625 -2.453125 2.84375 -2.171875 2.75 -1.921875 C 2.65625 -1.671875 2.546875 -1.421875 2.4375 -1.1875 C 2.421875 -1.171875 2.421875 -1.15625 2.421875 -1.15625 C 2.390625 -1.109375 2.375 -1.0625 2.34375 -1.015625 C 2.296875 -0.921875 2.234375 -0.828125 2.1875 -0.734375 C 2 -0.484375 1.15625 0.4375 0.921875 -0.234375 C 0.90625 -0.296875 0.875 -0.375 0.859375 -0.4375 C 0.78125 -0.484375 0.71875 -0.546875 0.71875 -0.65625 C 0.71875 -0.78125 0.71875 -0.921875 0.703125 -1.046875 C 0.703125 -1.046875 0.703125 -1.0625 0.703125 -1.078125 C 0.6875 -1.109375 0.6875 -1.15625 0.6875 -1.1875 C 0.671875 -1.28125 0.671875 -1.359375 0.65625 -1.453125 C 0.625 -1.703125 0.59375 -1.953125 0.546875 -2.1875 C 0.5 -2.4375 0.453125 -2.703125 0.390625 -2.953125 C 0.34375 -3.1875 0.28125 -3.4375 0.234375 -3.6875 C 0.234375 -3.71875 0.265625 -3.734375 0.28125 -3.703125 L 0.34375 -3.578125 C 0.265625 -3.796875 0.125 -4.359375 0.515625 -4.328125 C 0.84375 -4.296875 1.015625 -4.015625 1.09375 -3.734375 C 1.1875 -3.390625 1.265625 -3.03125 1.328125 -2.671875 C 1.375 -2.4375 1.546875 -1.453125 1.5625 -1.359375 C 1.71875 -1.75 1.828125 -2.15625 1.921875 -2.5625 C 2.03125 -3.15625 2.09375 -3.765625 2.078125 -4.375 C 2.078125 -4.453125 2.1875 -4.453125 2.203125 -4.375 C 2.25 -3.296875 2.0625 -2.1875 1.59375 -1.203125 C 1.609375 -1.1875 1.609375 -1.140625 1.609375 -1.125 C 2.203125 -2.234375 2.28125 -3.3125 2.28125 -4.390625 C 2.421875 -4.421875 2.578125 -4.390625 2.703125 -4.328125 C 2.75 -4.359375 2.8125 -4.34375 2.859375 -4.3125 C 2.953125 -4.21875 2.984375 -4.078125 3.015625 -3.953125 C 3.046875 -3.828125 3.046875 -3.671875 3.046875 -3.546875 Z M 3.046875 -3.546875 "/></g></g></g><g fill="#ffffff" fill-opacity="1"><g transform="translate(73.148039, 82.40699)"><g><path d="M 0.265625 -0.65625 C 0.46875 -0.65625 0.625 -0.796875 0.734375 -0.9375 C 0.875 -1.109375 0.984375 -1.28125 1.109375 -1.453125 C 1.203125 -1.578125 1.296875 -1.734375 1.390625 -1.875 C 1.484375 -2 1.5625 -2.140625 1.65625 -2.28125 C 1.671875 -2.3125 1.6875 -2.34375 1.71875 -2.375 C 1.734375 -2.421875 1.75 -2.46875 1.75 -2.484375 C 1.75 -2.5 1.75 -2.515625 1.734375 -2.515625 C 1.71875 -2.546875 1.703125 -2.546875 1.671875 -2.546875 C 1.640625 -2.546875 1.609375 -2.546875 1.59375 -2.53125 C 1.59375 -2.515625 1.578125 -2.5 1.578125 -2.5 C 1.578125 -2.484375 1.5625 -2.46875 1.5625 -2.46875 L 1.078125 -1.734375 C 0.96875 -1.5625 0.484375 -0.875 0.296875 -0.875 C 0.265625 -0.875 0.25 -0.90625 0.234375 -0.953125 L 0.234375 -1.015625 C 0.234375 -1.203125 0.25 -1.40625 0.28125 -1.609375 L 0.328125 -1.8125 C 0.34375 -1.875 0.375 -1.90625 0.421875 -1.90625 C 0.46875 -1.921875 0.5 -1.9375 0.53125 -1.9375 C 0.5625 -1.953125 0.59375 -1.953125 0.625 -1.96875 C 0.84375 -2.109375 1.078125 -2.296875 1.140625 -2.5625 C 1.203125 -2.734375 1.15625 -2.84375 0.984375 -2.921875 C 0.921875 -2.953125 0.859375 -2.953125 0.765625 -2.953125 C 0.703125 -2.953125 0.640625 -2.9375 0.5625 -2.890625 C 0.5 -2.84375 0.453125 -2.796875 0.421875 -2.75 C 0.3125 -2.65625 0.234375 -2.53125 0.171875 -2.40625 C -0.046875 -1.96875 -0.140625 -1.5 -0.109375 -1.03125 L -0.09375 -0.890625 C -0.046875 -0.734375 0.109375 -0.65625 0.265625 -0.65625 Z M 0.453125 -2.078125 C 0.421875 -2.09375 0.421875 -2.109375 0.4375 -2.125 C 0.484375 -2.296875 0.71875 -2.78125 0.90625 -2.78125 C 0.9375 -2.78125 0.953125 -2.765625 0.96875 -2.734375 L 0.96875 -2.71875 C 0.96875 -2.484375 0.6875 -2.15625 0.484375 -2.078125 C 0.46875 -2.078125 0.453125 -2.078125 0.453125 -2.078125 Z M 0.453125 -2.078125 "/></g></g></g><g fill="#ffffff" fill-opacity="1"><g transform="translate(74.496421, 82.40699)"><g><path d="M 0.421875 -0.265625 C 0.671875 -0.265625 0.890625 -0.625 0.96875 -0.84375 C 1.125 -1.140625 1.28125 -1.46875 1.390625 -1.78125 C 1.4375 -1.875 1.46875 -1.953125 1.5 -2.046875 C 1.546875 -2.140625 1.578125 -2.21875 1.609375 -2.3125 C 1.625 -2.34375 1.640625 -2.359375 1.65625 -2.390625 C 1.65625 -2.40625 1.671875 -2.421875 1.671875 -2.453125 C 1.6875 -2.484375 1.671875 -2.5 1.640625 -2.515625 C 1.625 -2.53125 1.59375 -2.53125 1.578125 -2.53125 C 1.453125 -2.53125 1.375 -2.34375 1.34375 -2.25 C 1.328125 -2.1875 1.296875 -2.125 1.28125 -2.078125 C 1.25 -2.015625 1.234375 -1.953125 1.203125 -1.890625 C 1.046875 -1.46875 0.8125 -0.890625 0.53125 -0.53125 C 0.5 -0.5 0.484375 -0.484375 0.46875 -0.484375 C 0.453125 -0.484375 0.453125 -0.484375 0.4375 -0.484375 C 0.4375 -0.5 0.421875 -0.5 0.421875 -0.515625 C 0.421875 -0.515625 0.421875 -0.53125 0.421875 -0.53125 C 0.375 -0.625 0.375 -0.703125 0.375 -0.78125 C 0.34375 -1.375 0.421875 -1.9375 0.53125 -2.5 C 0.546875 -2.546875 0.578125 -2.59375 0.609375 -2.65625 C 0.9375 -3.0625 1.59375 -3.9375 1.71875 -4.453125 C 1.734375 -4.546875 1.734375 -4.640625 1.734375 -4.71875 C 1.703125 -4.859375 1.609375 -4.9375 1.453125 -4.953125 C 1.203125 -4.953125 1.09375 -4.8125 0.96875 -4.625 C 0.390625 -3.796875 0.03125 -2.109375 0.03125 -1.0625 C 0.015625 -0.9375 0.03125 -0.78125 0.0625 -0.609375 C 0.0625 -0.421875 0.140625 -0.296875 0.328125 -0.265625 C 0.34375 -0.265625 0.375 -0.265625 0.421875 -0.265625 Z M 0.734375 -3.203125 L 0.71875 -3.203125 C 0.71875 -3.21875 0.71875 -3.234375 0.71875 -3.234375 C 0.71875 -3.25 0.71875 -3.265625 0.71875 -3.265625 C 0.859375 -3.78125 1.046875 -4.25 1.359375 -4.6875 C 1.375 -4.703125 1.453125 -4.765625 1.46875 -4.765625 C 1.484375 -4.765625 1.5 -4.75 1.515625 -4.734375 L 1.515625 -4.65625 C 1.5 -4.296875 1.03125 -3.53125 0.796875 -3.265625 C 0.78125 -3.234375 0.765625 -3.21875 0.75 -3.203125 Z M 0.734375 -3.203125 "/></g></g></g><g fill="#ffffff" fill-opacity="1"><g transform="translate(75.698593, 82.40699)"><g><path d="M 1.296875 -0.765625 C 1.375 -0.765625 1.453125 -0.796875 1.515625 -0.875 C 1.578125 -0.921875 1.640625 -0.984375 1.703125 -1.046875 C 1.78125 -1.15625 1.859375 -1.28125 1.953125 -1.390625 L 2.296875 -1.9375 C 2.328125 -1.984375 2.359375 -2.0625 2.40625 -2.125 C 2.4375 -2.1875 2.46875 -2.25 2.515625 -2.3125 C 2.53125 -2.359375 2.546875 -2.390625 2.546875 -2.421875 C 2.546875 -2.421875 2.546875 -2.421875 2.546875 -2.453125 C 2.546875 -2.5 2.515625 -2.515625 2.453125 -2.515625 C 2.421875 -2.515625 2.40625 -2.5 2.40625 -2.484375 C 2.375 -2.453125 2.34375 -2.40625 2.328125 -2.375 C 2.15625 -2.046875 1.71875 -1.359375 1.46875 -1.09375 C 1.4375 -1.078125 1.40625 -1.0625 1.390625 -1.046875 C 1.359375 -1.015625 1.34375 -1 1.3125 -0.984375 C 1.296875 -0.984375 1.296875 -0.984375 1.296875 -0.984375 C 1.296875 -0.96875 1.296875 -0.96875 1.296875 -0.96875 C 1.265625 -0.96875 1.25 -0.984375 1.234375 -1.015625 C 1.203125 -1.109375 1.234375 -1.1875 1.25 -1.28125 C 1.296875 -1.546875 1.34375 -1.796875 1.453125 -2.0625 C 1.515625 -2.203125 1.578125 -2.359375 1.640625 -2.515625 C 1.671875 -2.578125 1.796875 -2.9375 1.796875 -2.984375 C 1.8125 -3.015625 1.796875 -3.046875 1.765625 -3.0625 C 1.734375 -3.09375 1.71875 -3.09375 1.6875 -3.09375 C 1.640625 -3.09375 1.609375 -3.078125 1.578125 -3.03125 C 1.546875 -2.984375 1.515625 -2.9375 1.484375 -2.90625 L 1.25 -2.546875 C 1.21875 -2.53125 1.203125 -2.515625 1.1875 -2.5 C 1.1875 -2.5 1.171875 -2.5 1.15625 -2.5 L 1.109375 -2.59375 C 1.015625 -2.75 0.875 -2.8125 0.703125 -2.8125 C 0.59375 -2.8125 0.5 -2.78125 0.390625 -2.71875 C 0.328125 -2.65625 0.28125 -2.59375 0.21875 -2.515625 C 0.1875 -2.453125 0.15625 -2.40625 0.125 -2.359375 C 0.09375 -2.296875 0.0625 -2.25 0.03125 -2.1875 C -0.078125 -2 -0.125 -1.796875 -0.125 -1.578125 C -0.09375 -1.375 0.046875 -1.28125 0.234375 -1.25 L 0.28125 -1.25 C 0.34375 -1.25 0.390625 -1.265625 0.421875 -1.296875 C 0.578125 -1.421875 0.703125 -1.546875 0.828125 -1.703125 C 0.859375 -1.71875 0.875 -1.734375 0.890625 -1.765625 L 0.90625 -1.765625 C 0.921875 -1.75 0.9375 -1.734375 0.9375 -1.734375 C 0.9375 -1.734375 0.9375 -1.71875 0.9375 -1.703125 C 0.921875 -1.6875 0.921875 -1.671875 0.921875 -1.671875 C 0.921875 -1.59375 0.90625 -1.53125 0.890625 -1.46875 C 0.875 -1.40625 0.875 -1.34375 0.859375 -1.265625 C 0.859375 -1.015625 1 -0.765625 1.296875 -0.765625 Z M 0.28125 -1.53125 C 0.265625 -1.53125 0.25 -1.5625 0.25 -1.609375 C 0.296875 -1.90625 0.59375 -2.671875 0.859375 -2.671875 C 0.890625 -2.671875 0.90625 -2.65625 0.921875 -2.609375 C 0.953125 -2.578125 0.953125 -2.5625 0.96875 -2.546875 C 0.96875 -2.484375 1 -2.453125 1.078125 -2.421875 C 1.09375 -2.40625 1.109375 -2.390625 1.09375 -2.359375 C 1.09375 -2.359375 1.09375 -2.34375 1.078125 -2.34375 C 0.890625 -2.09375 0.71875 -1.875 0.484375 -1.65625 C 0.46875 -1.625 0.4375 -1.609375 0.421875 -1.59375 C 0.390625 -1.578125 0.359375 -1.5625 0.328125 -1.53125 C 0.328125 -1.53125 0.3125 -1.53125 0.28125 -1.53125 Z M 0.28125 -1.53125 "/></g></g></g><g fill="#ffffff" fill-opacity="1"><g transform="translate(77.843007, 82.40699)"><g><path d="M 0.28125 0.03125 C 0.578125 0.03125 0.84375 -0.328125 0.890625 -0.609375 C 0.9375 -0.859375 0.953125 -1.09375 0.875 -1.34375 C 0.84375 -1.4375 0.875 -1.5 0.921875 -1.546875 C 0.9375 -1.5625 0.953125 -1.578125 0.96875 -1.59375 C 1.09375 -1.71875 1.21875 -1.84375 1.34375 -1.953125 C 1.46875 -2.078125 1.578125 -2.1875 1.703125 -2.3125 C 1.71875 -2.34375 1.75 -2.359375 1.78125 -2.390625 C 1.796875 -2.4375 1.796875 -2.46875 1.765625 -2.484375 C 1.734375 -2.5 1.71875 -2.5 1.6875 -2.5 C 1.65625 -2.5 1.640625 -2.5 1.609375 -2.46875 L 0.921875 -1.796875 C 0.890625 -1.765625 0.859375 -1.734375 0.8125 -1.703125 C 0.796875 -1.6875 0.78125 -1.6875 0.78125 -1.6875 C 0.703125 -1.6875 0.515625 -2.34375 0.5 -2.359375 C 0.484375 -2.453125 0.46875 -2.546875 0.484375 -2.65625 C 0.46875 -2.765625 0.484375 -2.859375 0.515625 -2.953125 C 0.5625 -3.078125 0.625 -3.171875 0.734375 -3.21875 C 0.75 -3.234375 0.75 -3.234375 0.765625 -3.234375 C 0.78125 -3.234375 0.8125 -3.21875 0.828125 -3.203125 C 0.859375 -3.125 0.875 -3.046875 0.859375 -2.984375 C 0.828125 -2.828125 0.8125 -2.6875 0.765625 -2.546875 C 0.765625 -2.53125 0.75 -2.5 0.75 -2.46875 C 0.75 -2.4375 0.75 -2.40625 0.734375 -2.375 C 0.734375 -2.34375 0.75 -2.3125 0.796875 -2.296875 C 0.796875 -2.296875 0.8125 -2.296875 0.828125 -2.296875 C 0.828125 -2.296875 0.828125 -2.296875 0.84375 -2.296875 C 0.875 -2.296875 0.90625 -2.3125 0.921875 -2.359375 L 0.953125 -2.40625 C 1.046875 -2.609375 1.09375 -2.828125 1.09375 -3.0625 C 1.078125 -3.1875 1 -3.28125 0.90625 -3.328125 C 0.859375 -3.34375 0.8125 -3.359375 0.765625 -3.375 C 0.734375 -3.390625 0.6875 -3.390625 0.640625 -3.390625 C 0.5625 -3.390625 0.484375 -3.359375 0.421875 -3.3125 C 0.28125 -3.203125 0.21875 -3.0625 0.1875 -2.90625 C 0.15625 -2.6875 0.15625 -2.484375 0.21875 -2.296875 C 0.28125 -2.0625 0.375 -1.8125 0.46875 -1.59375 C 0.53125 -1.375 0.546875 -1.453125 0.40625 -1.28125 C 0.234375 -1.078125 0.09375 -0.859375 -0.03125 -0.640625 C -0.03125 -0.609375 -0.046875 -0.578125 -0.0625 -0.546875 C -0.078125 -0.515625 -0.09375 -0.484375 -0.109375 -0.453125 C -0.15625 -0.25 -0.0625 -0.0625 0.140625 0.015625 C 0.1875 0.03125 0.234375 0.03125 0.28125 0.03125 Z M 0.25 -0.125 C 0.21875 -0.125 0.1875 -0.140625 0.171875 -0.15625 C 0.125 -0.21875 0.109375 -0.296875 0.125 -0.375 C 0.125 -0.546875 0.390625 -0.9375 0.5 -1.078125 C 0.515625 -1.09375 0.53125 -1.09375 0.546875 -1.09375 C 0.5625 -1.078125 0.5625 -1.0625 0.5625 -1.0625 C 0.578125 -1.03125 0.578125 -1 0.578125 -0.96875 C 0.578125 -0.9375 0.578125 -0.890625 0.578125 -0.859375 C 0.578125 -0.75 0.5625 -0.640625 0.53125 -0.53125 C 0.5 -0.421875 0.359375 -0.125 0.25 -0.125 Z M 0.25 -0.125 "/></g></g></g><g fill="#ffffff" fill-opacity="1"><g transform="translate(76.949351, 83.624913)"><g><path d="M 1.375 -0.828125 L 1.0625 0 L 0.953125 0 L 0.6875 -0.6875 L 0.4375 0 L 0.328125 0 L 0.015625 -0.828125 L 0.125 -0.828125 L 0.375 -0.125 L 0.640625 -0.828125 L 0.75 -0.828125 L 1.015625 -0.125 L 1.265625 -0.828125 Z M 1.375 -0.828125 "/></g></g></g><g fill="#ffffff" fill-opacity="1"><g transform="translate(78.333783, 83.624913)"><g><path d="M 0.875 -0.375 L 0.1875 -0.375 C 0.1875 -0.289062 0.21875 -0.222656 0.28125 -0.171875 C 0.34375 -0.117188 0.421875 -0.09375 0.515625 -0.09375 C 0.566406 -0.09375 0.613281 -0.0976562 0.65625 -0.109375 C 0.695312 -0.128906 0.734375 -0.160156 0.765625 -0.203125 L 0.828125 -0.125 C 0.785156 -0.0820312 0.738281 -0.046875 0.6875 -0.015625 C 0.632812 0.00390625 0.578125 0.015625 0.515625 0.015625 C 0.421875 0.015625 0.34375 0 0.28125 -0.03125 C 0.21875 -0.0703125 0.164062 -0.125 0.125 -0.1875 C 0.09375 -0.257812 0.078125 -0.335938 0.078125 -0.421875 C 0.078125 -0.492188 0.09375 -0.5625 0.125 -0.625 C 0.15625 -0.695312 0.203125 -0.75 0.265625 -0.78125 C 0.328125 -0.820312 0.398438 -0.84375 0.484375 -0.84375 C 0.554688 -0.84375 0.625 -0.820312 0.6875 -0.78125 C 0.75 -0.75 0.796875 -0.695312 0.828125 -0.625 C 0.859375 -0.5625 0.875 -0.492188 0.875 -0.421875 Z M 0.484375 -0.734375 C 0.398438 -0.734375 0.332031 -0.707031 0.28125 -0.65625 C 0.226562 -0.613281 0.195312 -0.550781 0.1875 -0.46875 L 0.765625 -0.46875 C 0.765625 -0.550781 0.734375 -0.613281 0.671875 -0.65625 C 0.617188 -0.707031 0.554688 -0.734375 0.484375 -0.734375 Z M 0.484375 -0.734375 "/></g></g></g><g fill="#ffffff" fill-opacity="1"><g transform="translate(79.285087, 83.624913)"><g><path d="M 0.578125 -0.84375 C 0.660156 -0.84375 0.734375 -0.820312 0.796875 -0.78125 C 0.859375 -0.75 0.90625 -0.695312 0.9375 -0.625 C 0.976562 -0.5625 1 -0.492188 1 -0.421875 C 1 -0.335938 0.976562 -0.257812 0.9375 -0.1875 C 0.90625 -0.125 0.859375 -0.0703125 0.796875 -0.03125 C 0.734375 0 0.660156 0.015625 0.578125 0.015625 C 0.515625 0.015625 0.453125 0 0.390625 -0.03125 C 0.335938 -0.0625 0.296875 -0.109375 0.265625 -0.171875 L 0.265625 0 L 0.15625 0 L 0.15625 -1.171875 L 0.265625 -1.171875 L 0.265625 -0.671875 C 0.304688 -0.722656 0.351562 -0.765625 0.40625 -0.796875 C 0.457031 -0.828125 0.515625 -0.84375 0.578125 -0.84375 Z M 0.578125 -0.09375 C 0.628906 -0.09375 0.679688 -0.101562 0.734375 -0.125 C 0.785156 -0.15625 0.820312 -0.195312 0.84375 -0.25 C 0.875 -0.300781 0.890625 -0.359375 0.890625 -0.421875 C 0.890625 -0.484375 0.875 -0.535156 0.84375 -0.578125 C 0.820312 -0.628906 0.785156 -0.664062 0.734375 -0.6875 C 0.679688 -0.71875 0.628906 -0.734375 0.578125 -0.734375 C 0.515625 -0.734375 0.457031 -0.71875 0.40625 -0.6875 C 0.363281 -0.664062 0.328125 -0.628906 0.296875 -0.578125 C 0.273438 -0.535156 0.265625 -0.484375 0.265625 -0.421875 C 0.265625 -0.359375 0.273438 -0.300781 0.296875 -0.25 C 0.328125 -0.195312 0.363281 -0.15625 0.40625 -0.125 C 0.457031 -0.101562 0.515625 -0.09375 0.578125 -0.09375 Z M 0.578125 -0.09375 "/></g></g></g><g fill="#ffffff" fill-opacity="1"><g transform="translate(59.569303, 76.094649)"><g><path d="M 0.4375 -2 L 0.4375 -1.5 C 0.4375 -1.445312 0.4375 -1.390625 0.4375 -1.328125 C 0.4375 -1.273438 0.429688 -1.234375 0.421875 -1.203125 L 0.4375 -1.203125 C 0.476562 -1.273438 0.535156 -1.332031 0.609375 -1.375 C 0.679688 -1.414062 0.773438 -1.4375 0.890625 -1.4375 C 1.066406 -1.4375 1.207031 -1.375 1.3125 -1.25 C 1.414062 -1.125 1.46875 -0.941406 1.46875 -0.703125 C 1.46875 -0.546875 1.441406 -0.410156 1.390625 -0.296875 C 1.347656 -0.191406 1.28125 -0.109375 1.1875 -0.046875 C 1.101562 0.00390625 1 0.03125 0.875 0.03125 C 0.769531 0.03125 0.679688 0.0078125 0.609375 -0.03125 C 0.535156 -0.0703125 0.476562 -0.125 0.4375 -0.1875 L 0.421875 -0.1875 L 0.375 0 L 0.21875 0 L 0.21875 -2 Z M 0.859375 -1.265625 C 0.753906 -1.265625 0.671875 -1.242188 0.609375 -1.203125 C 0.546875 -1.160156 0.5 -1.097656 0.46875 -1.015625 C 0.445312 -0.929688 0.4375 -0.832031 0.4375 -0.71875 L 0.4375 -0.703125 C 0.4375 -0.523438 0.46875 -0.390625 0.53125 -0.296875 C 0.59375 -0.203125 0.703125 -0.15625 0.859375 -0.15625 C 0.984375 -0.15625 1.078125 -0.203125 1.140625 -0.296875 C 1.210938 -0.390625 1.25 -0.523438 1.25 -0.703125 C 1.25 -0.890625 1.210938 -1.03125 1.140625 -1.125 C 1.078125 -1.21875 0.984375 -1.265625 0.859375 -1.265625 Z M 0.859375 -1.265625 "/></g></g></g><g fill="#ffffff" fill-opacity="1"><g transform="translate(61.180699, 76.094649)"><g><path d="M 0 -1.40625 L 0.234375 -1.40625 L 0.546875 -0.59375 C 0.566406 -0.539062 0.582031 -0.492188 0.59375 -0.453125 C 0.613281 -0.410156 0.628906 -0.367188 0.640625 -0.328125 C 0.648438 -0.285156 0.65625 -0.242188 0.65625 -0.203125 L 0.671875 -0.203125 C 0.679688 -0.253906 0.695312 -0.3125 0.71875 -0.375 C 0.75 -0.445312 0.773438 -0.519531 0.796875 -0.59375 L 1.09375 -1.40625 L 1.328125 -1.40625 L 0.703125 0.203125 C 0.671875 0.296875 0.632812 0.375 0.59375 0.4375 C 0.550781 0.5 0.5 0.546875 0.4375 0.578125 C 0.375 0.617188 0.300781 0.640625 0.21875 0.640625 C 0.175781 0.640625 0.140625 0.632812 0.109375 0.625 C 0.078125 0.625 0.0507812 0.617188 0.03125 0.609375 L 0.03125 0.4375 C 0.0390625 0.445312 0.0625 0.453125 0.09375 0.453125 C 0.125 0.453125 0.148438 0.453125 0.171875 0.453125 C 0.234375 0.453125 0.28125 0.441406 0.3125 0.421875 C 0.351562 0.398438 0.382812 0.367188 0.40625 0.328125 C 0.4375 0.296875 0.460938 0.253906 0.484375 0.203125 L 0.5625 0 Z M 0 -1.40625 "/></g></g></g></svg>