<svg xmlns="http://www.w3.org/2000/svg" xmlns:xlink="http://www.w3.org/1999/xlink" width="200" zoomAndPan="magnify" viewBox="0 0 150 149.999998" height="200" preserveAspectRatio="xMidYMid meet" version="1.0"><defs><g/></defs><g fill="#ffffff" fill-opacity="1"><g transform="translate(62.32291, 73.881662)"><g><path d="M 0.3125 -15.25 C 1.765625 -12 2.71875 -10.03125 4.078125 -6.9375 C 4.40625 -6.171875 4.984375 -5.5 5.65625 -5.5 C 6.5625 -5.5 7.015625 -5.90625 7.3125 -6.25 L 4.703125 0 L 8.453125 0 C 7.5625 -1.171875 7.3125 -2.609375 7.3125 -3.671875 C 7.3125 -6 8.453125 -8.1875 9.265625 -10.125 C 9.734375 -11.203125 11.0625 -14.890625 12.328125 -15.171875 L 12.328125 -15.25 L 7.859375 -15.25 L 7.859375 -15.171875 C 8.78125 -15 9.15625 -14.15625 9.15625 -13.0625 C 9.15625 -11.59375 8.4375 -8.9375 8.078125 -8.140625 C 7.484375 -6.78125 7.21875 -6.671875 6.953125 -6.671875 C 6.5 -6.671875 6.28125 -7.09375 5.671875 -8.484375 C 4.671875 -10.765625 3.796875 -12.5625 2.59375 -15.25 Z M 0.3125 -15.25 "/></g></g></g><g fill="#ffffff" fill-opacity="1"><g transform="translate(70.438152, 73.872771)"><g><path d="M 0.484375 -2.828125 C 0.484375 -1.140625 1.546875 0.328125 3.421875 0.328125 C 6.640625 0.328125 8.53125 -2.515625 8.53125 -6.453125 C 8.53125 -7.234375 8.5 -7.875 8.4375 -8.390625 L 10.453125 -3.109375 C 11.0625 -1.46875 11.140625 -0.15625 8.859375 -0.15625 L 8.859375 0 L 14.171875 0 L 14.171875 -0.15625 C 13.1875 -0.15625 12.65625 -1.046875 11.953125 -2.828125 L 6.78125 -16.5 L 6.609375 -16.5 C 5.59375 -13.8125 5 -12.203125 4.015625 -9.609375 C 3.84375 -9.1875 3.9375 -8.75 4.375 -8.75 C 5.296875 -8.75 5.796875 -10.453125 6.5625 -10.453125 C 6.78125 -10.453125 6.953125 -10.3125 6.953125 -10.015625 C 6.953125 -8.328125 0.484375 -6.8125 0.484375 -2.828125 Z M 1.859375 -3.140625 C 1.859375 -7.125 7.125 -7.8125 7.125 -9.984375 C 7.125 -10.40625 6.90625 -10.609375 6.59375 -10.609375 C 5.734375 -10.609375 5.140625 -8.90625 4.40625 -8.90625 C 4.140625 -8.90625 4.015625 -9.109375 4.21875 -9.671875 L 6.078125 -14.625 L 8.03125 -9.453125 C 8.328125 -8.5 8.375 -7.609375 8.375 -6.421875 C 8.375 -3.765625 7.09375 -0.453125 4.40625 -0.453125 C 2.8125 -0.453125 1.859375 -1.625 1.859375 -3.140625 Z M 1.859375 -3.140625 "/></g></g></g><g fill="#ffffff" fill-opacity="1"><g transform="translate(64.776099, 77.084376)"><g><path d="M 0.15625 -0.9375 L 0.25 -0.9375 L 0.25 0 L 0.15625 0 Z M 0.15625 -0.9375 "/></g></g></g><g fill="#ffffff" fill-opacity="1"><g transform="translate(65.289266, 77.084376)"><g><path d="M 0.9375 -0.9375 L 0.9375 0 L 0.859375 0 L 0.25 -0.765625 L 0.25 0 L 0.15625 0 L 0.15625 -0.9375 L 0.234375 -0.9375 L 0.84375 -0.171875 L 0.84375 -0.9375 Z M 0.9375 -0.9375 "/></g></g></g><g fill="#ffffff" fill-opacity="1"><g transform="translate(66.488808, 77.084376)"><g><path d="M 0.15625 -0.9375 L 0.53125 -0.9375 C 0.632812 -0.9375 0.722656 -0.914062 0.796875 -0.875 C 0.867188 -0.84375 0.925781 -0.789062 0.96875 -0.71875 C 1.019531 -0.644531 1.046875 -0.5625 1.046875 -0.46875 C 1.046875 -0.375 1.019531 -0.289062 0.96875 -0.21875 C 0.925781 -0.15625 0.867188 -0.101562 0.796875 -0.0625 C 0.722656 -0.0195312 0.632812 0 0.53125 0 L 0.15625 0 Z M 0.53125 -0.09375 C 0.613281 -0.09375 0.6875 -0.109375 0.75 -0.140625 C 0.8125 -0.171875 0.859375 -0.210938 0.890625 -0.265625 C 0.921875 -0.328125 0.9375 -0.394531 0.9375 -0.46875 C 0.9375 -0.539062 0.921875 -0.601562 0.890625 -0.65625 C 0.859375 -0.71875 0.8125 -0.765625 0.75 -0.796875 C 0.6875 -0.835938 0.613281 -0.859375 0.53125 -0.859375 L 0.25 -0.859375 L 0.25 -0.09375 Z M 0.53125 -0.09375 "/></g></g></g><g fill="#ffffff" fill-opacity="1"><g transform="translate(67.705812, 77.084376)"><g><path d="M 0.75 -0.25 L 0.21875 -0.25 L 0.109375 0 L 0 0 L 0.4375 -0.9375 L 0.53125 -0.9375 L 0.953125 0 L 0.859375 0 Z M 0.703125 -0.328125 L 0.484375 -0.84375 L 0.25 -0.328125 Z M 0.703125 -0.328125 "/></g></g></g><g fill="#ffffff" fill-opacity="1"><g transform="translate(68.776406, 77.084376)"><g><path d="M 0.46875 -0.328125 L 0.46875 0 L 0.375 0 L 0.375 -0.328125 L 0 -0.9375 L 0.109375 -0.9375 L 0.4375 -0.40625 L 0.75 -0.9375 L 0.859375 -0.9375 Z M 0.46875 -0.328125 "/></g></g></g><g fill="#ffffff" fill-opacity="1"><g transform="translate(69.736859, 77.084376)"><g><path d="M 0.75 -0.25 L 0.21875 -0.25 L 0.109375 0 L 0 0 L 0.4375 -0.9375 L 0.53125 -0.9375 L 0.953125 0 L 0.859375 0 Z M 0.703125 -0.328125 L 0.484375 -0.84375 L 0.25 -0.328125 Z M 0.703125 -0.328125 "/></g></g></g><g fill="#ffffff" fill-opacity="1"><g transform="translate(70.807454, 77.084376)"><g><path d="M 0.796875 0 L 0.578125 -0.296875 C 0.554688 -0.296875 0.53125 -0.296875 0.5 -0.296875 L 0.25 -0.296875 L 0.25 0 L 0.15625 0 L 0.15625 -0.9375 L 0.5 -0.9375 C 0.625 -0.9375 0.71875 -0.90625 0.78125 -0.84375 C 0.851562 -0.789062 0.890625 -0.71875 0.890625 -0.625 C 0.890625 -0.550781 0.867188 -0.488281 0.828125 -0.4375 C 0.796875 -0.382812 0.742188 -0.347656 0.671875 -0.328125 L 0.90625 0 Z M 0.5 -0.390625 C 0.59375 -0.390625 0.664062 -0.40625 0.71875 -0.4375 C 0.769531 -0.476562 0.796875 -0.539062 0.796875 -0.625 C 0.796875 -0.695312 0.769531 -0.753906 0.71875 -0.796875 C 0.664062 -0.835938 0.59375 -0.859375 0.5 -0.859375 L 0.25 -0.859375 L 0.25 -0.390625 Z M 0.5 -0.390625 "/></g></g></g><g fill="#ffffff" fill-opacity="1"><g transform="translate(71.886108, 77.084376)"><g><path d="M 0.75 -0.25 L 0.21875 -0.25 L 0.109375 0 L 0 0 L 0.4375 -0.9375 L 0.53125 -0.9375 L 0.953125 0 L 0.859375 0 Z M 0.703125 -0.328125 L 0.484375 -0.84375 L 0.25 -0.328125 Z M 0.703125 -0.328125 "/></g></g></g><g fill="#ffffff" fill-opacity="1"><g transform="translate(72.956703, 77.084376)"><g/></g></g><g fill="#ffffff" fill-opacity="1"><g transform="translate(73.416142, 77.084376)"><g><path d="M 0.75 -0.25 L 0.21875 -0.25 L 0.109375 0 L 0 0 L 0.4375 -0.9375 L 0.53125 -0.9375 L 0.953125 0 L 0.859375 0 Z M 0.703125 -0.328125 L 0.484375 -0.84375 L 0.25 -0.328125 Z M 0.703125 -0.328125 "/></g></g></g><g fill="#ffffff" fill-opacity="1"><g transform="translate(74.486737, 77.084376)"><g><path d="M 0.25 -0.859375 L 0.25 -0.484375 L 0.734375 -0.484375 L 0.734375 -0.40625 L 0.25 -0.40625 L 0.25 0 L 0.15625 0 L 0.15625 -0.9375 L 0.796875 -0.9375 L 0.796875 -0.859375 Z M 0.25 -0.859375 "/></g></g></g><g fill="#ffffff" fill-opacity="1"><g transform="translate(75.444503, 77.084376)"><g><path d="M 0.796875 0 L 0.578125 -0.296875 C 0.554688 -0.296875 0.53125 -0.296875 0.5 -0.296875 L 0.25 -0.296875 L 0.25 0 L 0.15625 0 L 0.15625 -0.9375 L 0.5 -0.9375 C 0.625 -0.9375 0.71875 -0.90625 0.78125 -0.84375 C 0.851562 -0.789062 0.890625 -0.71875 0.890625 -0.625 C 0.890625 -0.550781 0.867188 -0.488281 0.828125 -0.4375 C 0.796875 -0.382812 0.742188 -0.347656 0.671875 -0.328125 L 0.90625 0 Z M 0.5 -0.390625 C 0.59375 -0.390625 0.664062 -0.40625 0.71875 -0.4375 C 0.769531 -0.476562 0.796875 -0.539062 0.796875 -0.625 C 0.796875 -0.695312 0.769531 -0.753906 0.71875 -0.796875 C 0.664062 -0.835938 0.59375 -0.859375 0.5 -0.859375 L 0.25 -0.859375 L 0.25 -0.390625 Z M 0.5 -0.390625 "/></g></g></g><g fill="#ffffff" fill-opacity="1"><g transform="translate(76.523158, 77.084376)"><g><path d="M 0.5625 0.015625 C 0.46875 0.015625 0.382812 -0.00390625 0.3125 -0.046875 C 0.238281 -0.0859375 0.175781 -0.144531 0.125 -0.21875 C 0.0820312 -0.289062 0.0625 -0.375 0.0625 -0.46875 C 0.0625 -0.5625 0.0820312 -0.644531 0.125 -0.71875 C 0.175781 -0.789062 0.238281 -0.847656 0.3125 -0.890625 C 0.382812 -0.929688 0.46875 -0.953125 0.5625 -0.953125 C 0.65625 -0.953125 0.738281 -0.929688 0.8125 -0.890625 C 0.882812 -0.847656 0.941406 -0.789062 0.984375 -0.71875 C 1.035156 -0.644531 1.0625 -0.5625 1.0625 -0.46875 C 1.0625 -0.375 1.035156 -0.289062 0.984375 -0.21875 C 0.941406 -0.144531 0.882812 -0.0859375 0.8125 -0.046875 C 0.738281 -0.00390625 0.65625 0.015625 0.5625 0.015625 Z M 0.5625 -0.078125 C 0.632812 -0.078125 0.703125 -0.09375 0.765625 -0.125 C 0.828125 -0.164062 0.875 -0.210938 0.90625 -0.265625 C 0.9375 -0.328125 0.953125 -0.394531 0.953125 -0.46875 C 0.953125 -0.539062 0.9375 -0.609375 0.90625 -0.671875 C 0.875 -0.734375 0.828125 -0.78125 0.765625 -0.8125 C 0.703125 -0.84375 0.632812 -0.859375 0.5625 -0.859375 C 0.488281 -0.859375 0.421875 -0.84375 0.359375 -0.8125 C 0.296875 -0.78125 0.25 -0.734375 0.21875 -0.671875 C 0.1875 -0.609375 0.171875 -0.539062 0.171875 -0.46875 C 0.171875 -0.394531 0.1875 -0.328125 0.21875 -0.265625 C 0.25 -0.210938 0.296875 -0.164062 0.359375 -0.125 C 0.421875 -0.09375 0.488281 -0.078125 0.5625 -0.078125 Z M 0.5625 -0.078125 "/></g></g></g><g fill="#ffffff" fill-opacity="1"><g transform="translate(77.757623, 77.084376)"><g/></g></g><g fill="#ffffff" fill-opacity="1"><g transform="translate(78.217062, 77.084376)"><g><path d="M 0.75 -0.484375 C 0.8125 -0.472656 0.859375 -0.445312 0.890625 -0.40625 C 0.921875 -0.363281 0.9375 -0.3125 0.9375 -0.25 C 0.9375 -0.164062 0.90625 -0.101562 0.84375 -0.0625 C 0.789062 -0.0195312 0.703125 0 0.578125 0 L 0.15625 0 L 0.15625 -0.9375 L 0.5625 -0.9375 C 0.664062 -0.9375 0.742188 -0.914062 0.796875 -0.875 C 0.859375 -0.832031 0.890625 -0.773438 0.890625 -0.703125 C 0.890625 -0.648438 0.875 -0.601562 0.84375 -0.5625 C 0.820312 -0.53125 0.789062 -0.503906 0.75 -0.484375 Z M 0.25 -0.859375 L 0.25 -0.515625 L 0.546875 -0.515625 C 0.628906 -0.515625 0.691406 -0.53125 0.734375 -0.5625 C 0.773438 -0.59375 0.796875 -0.632812 0.796875 -0.6875 C 0.796875 -0.738281 0.773438 -0.78125 0.734375 -0.8125 C 0.691406 -0.84375 0.628906 -0.859375 0.546875 -0.859375 Z M 0.578125 -0.078125 C 0.660156 -0.078125 0.722656 -0.09375 0.765625 -0.125 C 0.816406 -0.15625 0.84375 -0.203125 0.84375 -0.265625 C 0.84375 -0.378906 0.753906 -0.4375 0.578125 -0.4375 L 0.25 -0.4375 L 0.25 -0.078125 Z M 0.578125 -0.078125 "/></g></g></g><g fill="#ffffff" fill-opacity="1"><g transform="translate(79.337355, 77.084376)"><g><path d="M 0.8125 -0.09375 L 0.8125 0 L 0.15625 0 L 0.15625 -0.9375 L 0.796875 -0.9375 L 0.796875 -0.859375 L 0.25 -0.859375 L 0.25 -0.515625 L 0.734375 -0.515625 L 0.734375 -0.4375 L 0.25 -0.4375 L 0.25 -0.09375 Z M 0.8125 -0.09375 "/></g></g></g><g fill="#ffffff" fill-opacity="1"><g transform="translate(80.343477, 77.084376)"><g><path d="M 0.15625 -0.9375 L 0.25 -0.9375 L 0.25 -0.09375 L 0.78125 -0.09375 L 0.78125 0 L 0.15625 0 Z M 0.15625 -0.9375 "/></g></g></g><g fill="#ffffff" fill-opacity="1"><g transform="translate(81.242142, 77.084376)"><g><path d="M 0.8125 -0.09375 L 0.8125 0 L 0.15625 0 L 0.15625 -0.9375 L 0.796875 -0.9375 L 0.796875 -0.859375 L 0.25 -0.859375 L 0.25 -0.515625 L 0.734375 -0.515625 L 0.734375 -0.4375 L 0.25 -0.4375 L 0.25 -0.09375 Z M 0.8125 -0.09375 "/></g></g></g><g fill="#ffffff" fill-opacity="1"><g transform="translate(82.248264, 77.084376)"><g><path d="M 0.828125 -0.09375 L 0.828125 0 L 0.0625 0 L 0.0625 -0.0625 L 0.6875 -0.859375 L 0.0625 -0.859375 L 0.0625 -0.9375 L 0.8125 -0.9375 L 0.8125 -0.875 L 0.1875 -0.09375 Z M 0.828125 -0.09375 "/></g></g></g><g fill="#ffffff" fill-opacity="1"><g transform="translate(83.230208, 77.084376)"><g><path d="M 0.75 -0.25 L 0.21875 -0.25 L 0.109375 0 L 0 0 L 0.4375 -0.9375 L 0.53125 -0.9375 L 0.953125 0 L 0.859375 0 Z M 0.703125 -0.328125 L 0.484375 -0.84375 L 0.25 -0.328125 Z M 0.703125 -0.328125 "/></g></g></g><g fill="#ffffff" fill-opacity="1"><g transform="translate(64.680399, 73.086977)"><g><path d="M 1.3125 0.625 L 1.328125 0.578125 C 0.953125 0.390625 1.078125 0.0625 1.484375 -0.796875 L 2.359375 -2.671875 L 1.578125 -3.03125 L 1.5625 -2.984375 C 1.953125 -2.8125 1.828125 -2.484375 1.421875 -1.625 L 1.109375 -0.96875 C 0.703125 -0.109375 0.53125 0.1875 0.140625 0.015625 L 0.125 0.0625 Z M 2.140625 -3.484375 C 2.0625 -3.328125 2.125 -3.125 2.296875 -3.046875 C 2.453125 -2.96875 2.640625 -3.046875 2.71875 -3.203125 C 2.796875 -3.375 2.734375 -3.5625 2.578125 -3.640625 C 2.40625 -3.71875 2.21875 -3.65625 2.140625 -3.484375 Z M 2.140625 -3.484375 "/></g></g></g></svg>