<svg xmlns="http://www.w3.org/2000/svg" xmlns:xlink="http://www.w3.org/1999/xlink" width="200" zoomAndPan="magnify" viewBox="0 0 150 149.999998" height="200" preserveAspectRatio="xMidYMid meet" version="1.0"><defs><g/></defs><g fill="#ff8033" fill-opacity="1"><g transform="translate(62.271516, 73.909202)"><g><path d="M 0.3125 -15.328125 C 1.78125 -12.0625 2.734375 -10.078125 4.09375 -6.96875 C 4.4375 -6.203125 5.015625 -5.53125 5.6875 -5.53125 C 6.59375 -5.53125 7.046875 -5.9375 7.34375 -6.28125 L 4.71875 0 L 8.484375 0 C 7.609375 -1.1875 7.359375 -2.625 7.359375 -3.6875 C 7.359375 -6.03125 8.484375 -8.234375 9.3125 -10.171875 C 9.78125 -11.265625 11.109375 -14.953125 12.390625 -15.25 L 12.390625 -15.328125 L 7.890625 -15.328125 L 7.890625 -15.25 C 8.828125 -15.078125 9.203125 -14.21875 9.203125 -13.140625 C 9.203125 -11.65625 8.46875 -8.984375 8.125 -8.1875 C 7.53125 -6.828125 7.25 -6.71875 6.984375 -6.71875 C 6.53125 -6.71875 6.3125 -7.125 5.703125 -8.515625 C 4.6875 -10.828125 3.8125 -12.625 2.609375 -15.328125 Z M 0.3125 -15.328125 "/></g></g></g><g fill="#ff8033" fill-opacity="1"><g transform="translate(70.425218, 73.900225)"><g><path d="M 0.484375 -2.84375 C 0.484375 -1.15625 1.5625 0.328125 3.4375 0.328125 C 6.671875 0.328125 8.578125 -2.53125 8.578125 -6.484375 C 8.578125 -7.265625 8.546875 -7.90625 8.484375 -8.4375 L 10.5 -3.125 C 11.109375 -1.484375 11.203125 -0.15625 8.90625 -0.15625 L 8.90625 0 L 14.234375 0 L 14.234375 -0.15625 C 13.25 -0.15625 12.71875 -1.0625 12.015625 -2.84375 L 6.8125 -16.578125 L 6.640625 -16.578125 C 5.625 -13.875 5.015625 -12.265625 4.03125 -9.65625 C 3.875 -9.234375 3.953125 -8.796875 4.40625 -8.796875 C 5.328125 -8.796875 5.8125 -10.5 6.59375 -10.5 C 6.8125 -10.5 6.984375 -10.375 6.984375 -10.0625 C 6.984375 -8.375 0.484375 -6.84375 0.484375 -2.84375 Z M 1.875 -3.15625 C 1.875 -7.171875 7.171875 -7.84375 7.171875 -10.03125 C 7.171875 -10.453125 6.9375 -10.65625 6.625 -10.65625 C 5.765625 -10.65625 5.171875 -8.953125 4.421875 -8.953125 C 4.15625 -8.953125 4.03125 -9.15625 4.234375 -9.71875 L 6.109375 -14.6875 L 8.078125 -9.5 C 8.375 -8.546875 8.421875 -7.65625 8.421875 -6.453125 C 8.421875 -3.78125 7.140625 -0.453125 4.421875 -0.453125 C 2.828125 -0.453125 1.875 -1.625 1.875 -3.15625 Z M 1.875 -3.15625 "/></g></g></g><g fill="#ff8033" fill-opacity="1"><g transform="translate(64.736335, 77.127047)"><g><path d="M 0.15625 -0.9375 L 0.25 -0.9375 L 0.25 0 L 0.15625 0 Z M 0.15625 -0.9375 "/></g></g></g><g fill="#ff8033" fill-opacity="1"><g transform="translate(65.251934, 77.127047)"><g><path d="M 0.9375 -0.9375 L 0.9375 0 L 0.859375 0 L 0.25 -0.765625 L 0.25 0 L 0.15625 0 L 0.15625 -0.9375 L 0.234375 -0.9375 L 0.84375 -0.171875 L 0.84375 -0.9375 Z M 0.9375 -0.9375 "/></g></g></g><g fill="#ff8033" fill-opacity="1"><g transform="translate(66.45716, 77.127047)"><g><path d="M 0.15625 -0.9375 L 0.53125 -0.9375 C 0.632812 -0.9375 0.722656 -0.914062 0.796875 -0.875 C 0.867188 -0.84375 0.925781 -0.789062 0.96875 -0.71875 C 1.019531 -0.644531 1.046875 -0.5625 1.046875 -0.46875 C 1.046875 -0.375 1.019531 -0.289062 0.96875 -0.21875 C 0.925781 -0.15625 0.867188 -0.101562 0.796875 -0.0625 C 0.722656 -0.0195312 0.632812 0 0.53125 0 L 0.15625 0 Z M 0.53125 -0.09375 C 0.613281 -0.09375 0.6875 -0.109375 0.75 -0.140625 C 0.8125 -0.171875 0.859375 -0.210938 0.890625 -0.265625 C 0.921875 -0.328125 0.9375 -0.394531 0.9375 -0.46875 C 0.9375 -0.539062 0.921875 -0.601562 0.890625 -0.65625 C 0.859375 -0.71875 0.8125 -0.765625 0.75 -0.796875 C 0.6875 -0.835938 0.613281 -0.859375 0.53125 -0.859375 L 0.25 -0.859375 L 0.25 -0.09375 Z M 0.53125 -0.09375 "/></g></g></g><g fill="#ff8033" fill-opacity="1"><g transform="translate(67.679931, 77.127047)"><g><path d="M 0.75 -0.25 L 0.21875 -0.25 L 0.109375 0 L 0 0 L 0.4375 -0.9375 L 0.53125 -0.9375 L 0.953125 0 L 0.859375 0 Z M 0.703125 -0.328125 L 0.484375 -0.84375 L 0.25 -0.328125 Z M 0.703125 -0.328125 "/></g></g></g><g fill="#ff8033" fill-opacity="1"><g transform="translate(68.755599, 77.127047)"><g><path d="M 0.46875 -0.328125 L 0.46875 0 L 0.375 0 L 0.375 -0.328125 L 0 -0.9375 L 0.109375 -0.9375 L 0.4375 -0.40625 L 0.75 -0.9375 L 0.859375 -0.9375 Z M 0.46875 -0.328125 "/></g></g></g><g fill="#ff8033" fill-opacity="1"><g transform="translate(69.720603, 77.127047)"><g><path d="M 0.75 -0.25 L 0.21875 -0.25 L 0.109375 0 L 0 0 L 0.4375 -0.9375 L 0.53125 -0.9375 L 0.953125 0 L 0.859375 0 Z M 0.703125 -0.328125 L 0.484375 -0.84375 L 0.25 -0.328125 Z M 0.703125 -0.328125 "/></g></g></g><g fill="#ff8033" fill-opacity="1"><g transform="translate(70.796271, 77.127047)"><g><path d="M 0.796875 0 L 0.578125 -0.296875 C 0.554688 -0.296875 0.53125 -0.296875 0.5 -0.296875 L 0.25 -0.296875 L 0.25 0 L 0.15625 0 L 0.15625 -0.9375 L 0.5 -0.9375 C 0.625 -0.9375 0.71875 -0.90625 0.78125 -0.84375 C 0.851562 -0.789062 0.890625 -0.71875 0.890625 -0.625 C 0.890625 -0.550781 0.867188 -0.488281 0.828125 -0.4375 C 0.796875 -0.382812 0.742188 -0.347656 0.671875 -0.328125 L 0.90625 0 Z M 0.5 -0.390625 C 0.59375 -0.390625 0.664062 -0.40625 0.71875 -0.4375 C 0.769531 -0.476562 0.796875 -0.539062 0.796875 -0.625 C 0.796875 -0.695312 0.769531 -0.753906 0.71875 -0.796875 C 0.664062 -0.835938 0.59375 -0.859375 0.5 -0.859375 L 0.25 -0.859375 L 0.25 -0.390625 Z M 0.5 -0.390625 "/></g></g></g><g fill="#ff8033" fill-opacity="1"><g transform="translate(71.880037, 77.127047)"><g><path d="M 0.75 -0.25 L 0.21875 -0.25 L 0.109375 0 L 0 0 L 0.4375 -0.9375 L 0.53125 -0.9375 L 0.953125 0 L 0.859375 0 Z M 0.703125 -0.328125 L 0.484375 -0.84375 L 0.25 -0.328125 Z M 0.703125 -0.328125 "/></g></g></g><g fill="#ff8033" fill-opacity="1"><g transform="translate(72.955705, 77.127047)"><g/></g></g><g fill="#ff8033" fill-opacity="1"><g transform="translate(73.417321, 77.127047)"><g><path d="M 0.75 -0.25 L 0.21875 -0.25 L 0.109375 0 L 0 0 L 0.4375 -0.9375 L 0.53125 -0.9375 L 0.953125 0 L 0.859375 0 Z M 0.703125 -0.328125 L 0.484375 -0.84375 L 0.25 -0.328125 Z M 0.703125 -0.328125 "/></g></g></g><g fill="#ff8033" fill-opacity="1"><g transform="translate(74.49299, 77.127047)"><g><path d="M 0.25 -0.859375 L 0.25 -0.484375 L 0.734375 -0.484375 L 0.734375 -0.40625 L 0.25 -0.40625 L 0.25 0 L 0.15625 0 L 0.15625 -0.9375 L 0.796875 -0.9375 L 0.796875 -0.859375 Z M 0.25 -0.859375 "/></g></g></g><g fill="#ff8033" fill-opacity="1"><g transform="translate(75.455295, 77.127047)"><g><path d="M 0.796875 0 L 0.578125 -0.296875 C 0.554688 -0.296875 0.53125 -0.296875 0.5 -0.296875 L 0.25 -0.296875 L 0.25 0 L 0.15625 0 L 0.15625 -0.9375 L 0.5 -0.9375 C 0.625 -0.9375 0.71875 -0.90625 0.78125 -0.84375 C 0.851562 -0.789062 0.890625 -0.71875 0.890625 -0.625 C 0.890625 -0.550781 0.867188 -0.488281 0.828125 -0.4375 C 0.796875 -0.382812 0.742188 -0.347656 0.671875 -0.328125 L 0.90625 0 Z M 0.5 -0.390625 C 0.59375 -0.390625 0.664062 -0.40625 0.71875 -0.4375 C 0.769531 -0.476562 0.796875 -0.539062 0.796875 -0.625 C 0.796875 -0.695312 0.769531 -0.753906 0.71875 -0.796875 C 0.664062 -0.835938 0.59375 -0.859375 0.5 -0.859375 L 0.25 -0.859375 L 0.25 -0.390625 Z M 0.5 -0.390625 "/></g></g></g><g fill="#ff8033" fill-opacity="1"><g transform="translate(76.539062, 77.127047)"><g><path d="M 0.5625 0.015625 C 0.46875 0.015625 0.382812 -0.00390625 0.3125 -0.046875 C 0.238281 -0.0859375 0.175781 -0.144531 0.125 -0.21875 C 0.0820312 -0.289062 0.0625 -0.375 0.0625 -0.46875 C 0.0625 -0.5625 0.0820312 -0.644531 0.125 -0.71875 C 0.175781 -0.789062 0.238281 -0.847656 0.3125 -0.890625 C 0.382812 -0.929688 0.46875 -0.953125 0.5625 -0.953125 C 0.65625 -0.953125 0.738281 -0.929688 0.8125 -0.890625 C 0.882812 -0.847656 0.941406 -0.789062 0.984375 -0.71875 C 1.035156 -0.644531 1.0625 -0.5625 1.0625 -0.46875 C 1.0625 -0.375 1.035156 -0.289062 0.984375 -0.21875 C 0.941406 -0.144531 0.882812 -0.0859375 0.8125 -0.046875 C 0.738281 -0.00390625 0.65625 0.015625 0.5625 0.015625 Z M 0.5625 -0.078125 C 0.632812 -0.078125 0.703125 -0.09375 0.765625 -0.125 C 0.828125 -0.164062 0.875 -0.210938 0.90625 -0.265625 C 0.9375 -0.328125 0.953125 -0.394531 0.953125 -0.46875 C 0.953125 -0.539062 0.9375 -0.609375 0.90625 -0.671875 C 0.875 -0.734375 0.828125 -0.78125 0.765625 -0.8125 C 0.703125 -0.84375 0.632812 -0.859375 0.5625 -0.859375 C 0.488281 -0.859375 0.421875 -0.84375 0.359375 -0.8125 C 0.296875 -0.78125 0.25 -0.734375 0.21875 -0.671875 C 0.1875 -0.609375 0.171875 -0.539062 0.171875 -0.46875 C 0.171875 -0.394531 0.1875 -0.328125 0.21875 -0.265625 C 0.25 -0.210938 0.296875 -0.164062 0.359375 -0.125 C 0.421875 -0.09375 0.488281 -0.078125 0.5625 -0.078125 Z M 0.5625 -0.078125 "/></g></g></g><g fill="#ff8033" fill-opacity="1"><g transform="translate(77.779376, 77.127047)"><g/></g></g><g fill="#ff8033" fill-opacity="1"><g transform="translate(78.240993, 77.127047)"><g><path d="M 0.75 -0.484375 C 0.8125 -0.472656 0.859375 -0.445312 0.890625 -0.40625 C 0.921875 -0.363281 0.9375 -0.3125 0.9375 -0.25 C 0.9375 -0.164062 0.90625 -0.101562 0.84375 -0.0625 C 0.789062 -0.0195312 0.703125 0 0.578125 0 L 0.15625 0 L 0.15625 -0.9375 L 0.5625 -0.9375 C 0.664062 -0.9375 0.742188 -0.914062 0.796875 -0.875 C 0.859375 -0.832031 0.890625 -0.773438 0.890625 -0.703125 C 0.890625 -0.648438 0.875 -0.601562 0.84375 -0.5625 C 0.820312 -0.53125 0.789062 -0.503906 0.75 -0.484375 Z M 0.25 -0.859375 L 0.25 -0.515625 L 0.546875 -0.515625 C 0.628906 -0.515625 0.691406 -0.53125 0.734375 -0.5625 C 0.773438 -0.59375 0.796875 -0.632812 0.796875 -0.6875 C 0.796875 -0.738281 0.773438 -0.78125 0.734375 -0.8125 C 0.691406 -0.84375 0.628906 -0.859375 0.546875 -0.859375 Z M 0.578125 -0.078125 C 0.660156 -0.078125 0.722656 -0.09375 0.765625 -0.125 C 0.816406 -0.15625 0.84375 -0.203125 0.84375 -0.265625 C 0.84375 -0.378906 0.753906 -0.4375 0.578125 -0.4375 L 0.25 -0.4375 L 0.25 -0.078125 Z M 0.578125 -0.078125 "/></g></g></g><g fill="#ff8033" fill-opacity="1"><g transform="translate(79.366595, 77.127047)"><g><path d="M 0.8125 -0.09375 L 0.8125 0 L 0.15625 0 L 0.15625 -0.9375 L 0.796875 -0.9375 L 0.796875 -0.859375 L 0.25 -0.859375 L 0.25 -0.515625 L 0.734375 -0.515625 L 0.734375 -0.4375 L 0.25 -0.4375 L 0.25 -0.09375 Z M 0.8125 -0.09375 "/></g></g></g><g fill="#ff8033" fill-opacity="1"><g transform="translate(80.377484, 77.127047)"><g><path d="M 0.15625 -0.9375 L 0.25 -0.9375 L 0.25 -0.09375 L 0.78125 -0.09375 L 0.78125 0 L 0.15625 0 Z M 0.15625 -0.9375 "/></g></g></g><g fill="#ff8033" fill-opacity="1"><g transform="translate(81.280408, 77.127047)"><g><path d="M 0.8125 -0.09375 L 0.8125 0 L 0.15625 0 L 0.15625 -0.9375 L 0.796875 -0.9375 L 0.796875 -0.859375 L 0.25 -0.859375 L 0.25 -0.515625 L 0.734375 -0.515625 L 0.734375 -0.4375 L 0.25 -0.4375 L 0.25 -0.09375 Z M 0.8125 -0.09375 "/></g></g></g><g fill="#ff8033" fill-opacity="1"><g transform="translate(82.291298, 77.127047)"><g><path d="M 0.828125 -0.09375 L 0.828125 0 L 0.0625 0 L 0.0625 -0.0625 L 0.6875 -0.859375 L 0.0625 -0.859375 L 0.0625 -0.9375 L 0.8125 -0.9375 L 0.8125 -0.875 L 0.1875 -0.09375 Z M 0.828125 -0.09375 "/></g></g></g><g fill="#ff8033" fill-opacity="1"><g transform="translate(83.277895, 77.127047)"><g><path d="M 0.75 -0.25 L 0.21875 -0.25 L 0.109375 0 L 0 0 L 0.4375 -0.9375 L 0.53125 -0.9375 L 0.953125 0 L 0.859375 0 Z M 0.703125 -0.328125 L 0.484375 -0.84375 L 0.25 -0.328125 Z M 0.703125 -0.328125 "/></g></g></g><g fill="#ff8033" fill-opacity="1"><g transform="translate(64.640179, 73.110717)"><g><path d="M 1.3125 0.625 L 1.328125 0.578125 C 0.96875 0.40625 1.09375 0.078125 1.5 -0.78125 L 2.390625 -2.671875 L 1.59375 -3.046875 L 1.578125 -3 C 1.96875 -2.828125 1.828125 -2.5 1.421875 -1.640625 L 1.109375 -0.96875 C 0.703125 -0.109375 0.53125 0.1875 0.140625 0.015625 L 0.125 0.0625 Z M 2.140625 -3.5 C 2.0625 -3.328125 2.125 -3.140625 2.296875 -3.0625 C 2.453125 -2.984375 2.65625 -3.046875 2.734375 -3.21875 C 2.8125 -3.375 2.734375 -3.578125 2.578125 -3.65625 C 2.40625 -3.734375 2.21875 -3.65625 2.140625 -3.5 Z M 2.140625 -3.5 "/></g></g></g></svg>