<svg xmlns="http://www.w3.org/2000/svg" xmlns:xlink="http://www.w3.org/1999/xlink" width="1920" zoomAndPan="magnify" viewBox="0 0 1440 809.999993" height="1080" preserveAspectRatio="xMidYMid meet" version="1.0"><defs><g/></defs><g fill="#ffffff" fill-opacity="1"><g transform="translate(592.756392, 443.929821)"><g><path d="M 27.140625 -23.65625 C 27.796875 -25.75 26.734375 -28.078125 24.8125 -29.0625 C 24.671875 -29.140625 24.53125 -29.234375 24.40625 -29.28125 C 23.5625 -29.515625 22.71875 -29.5625 21.984375 -29.5625 C 21.703125 -29.5625 21.421875 -29.5625 21.1875 -29.609375 L 20.53125 -29.65625 C 19.65625 -29.703125 18.765625 -29.75 17.828125 -29.84375 C 15.734375 -30.078125 13.5 -30.40625 11.3125 -30.828125 C 11.21875 -30.828125 11.125 -30.875 10.984375 -30.875 C 10.796875 -30.875 10.65625 -30.828125 10.46875 -30.78125 C 8.984375 -31.109375 7.453125 -31.46875 5.90625 -31.890625 C 5.40625 -32.265625 4.796875 -32.453125 4.140625 -32.453125 C 2.515625 -32.453125 1.15625 -31.390625 0.84375 -29.890625 C 0.84375 -29.84375 0.796875 -29.796875 0.796875 -29.703125 C 0 -29.28125 -0.609375 -28.546875 -0.796875 -27.609375 C -1.125 -26.125 -0.890625 -24.71875 -0.09375 -23.5625 C -0.09375 -23.09375 -0.046875 -22.671875 0.046875 -22.25 C 0.515625 -20.765625 0.9375 -19.140625 1.25 -17.234375 C 0.9375 -16.90625 0.609375 -16.578125 0.375 -16.15625 C -0.796875 -14.203125 -0.1875 -11.734375 1.8125 -10.4375 L 2.328125 -10.15625 C 2.75 -6.375 2.75 -2.328125 3.71875 1.34375 C 4.09375 2.796875 5.3125 3.71875 6.84375 3.71875 C 7.359375 3.71875 7.921875 3.625 8.375 3.40625 C 9.828125 2.75 10.5625 1.71875 10.984375 0.5625 C 13.21875 -1.125 13.125 -4.1875 13.078125 -6.28125 L 13.078125 -6.65625 C 13.03125 -7.734375 12.9375 -8.796875 12.84375 -9.875 C 15.171875 -9.828125 17.640625 -9.640625 20.109375 -9.3125 C 20.25 -9.3125 20.4375 -9.265625 20.625 -9.265625 C 21.796875 -9.265625 22.953125 -9.875 23.75 -10.9375 C 24.078125 -11.359375 24.3125 -11.828125 24.484375 -12.34375 C 24.8125 -12.578125 25.09375 -12.84375 25.375 -13.21875 C 26.265625 -14.390625 26.59375 -15.921875 26.265625 -17.234375 C 25.984375 -18.109375 25.421875 -18.90625 24.71875 -19.515625 C 25 -19.875 25.234375 -20.34375 25.375 -20.8125 C 26.3125 -21.515625 26.953125 -22.484375 27.140625 -23.65625 Z M 22.8125 -21.46875 C 21.984375 -21.421875 21.328125 -21.609375 20.625 -21.984375 L 20.484375 -21.984375 C 20.296875 -22.03125 20.15625 -22.03125 19.96875 -22.03125 L 17.046875 -22.296875 C 15.046875 -22.484375 12.984375 -22.71875 10.984375 -23.09375 C 10.25 -23.234375 9.359375 -23.421875 8.421875 -23.65625 C 8.609375 -22.71875 9.453125 -19.703125 9.546875 -19.1875 L 9.59375 -19.1875 C 10.984375 -19.328125 12.34375 -19.375 13.734375 -19.421875 C 16.390625 -19.46875 19.046875 -19.375 21.703125 -19.09375 C 23.046875 -19.09375 24.4375 -18.203125 24.8125 -16.859375 C 25.28125 -15.171875 23.9375 -12.796875 21.9375 -13.03125 C 19.046875 -13.453125 16.109375 -13.640625 13.171875 -13.59375 C 12.390625 -13.59375 11.59375 -13.59375 10.796875 -13.546875 C 11.171875 -11.265625 11.546875 -8.9375 11.59375 -6.609375 C 11.640625 -4.375 11.875 -1.296875 9.40625 -0.234375 C 8.375 0.234375 7.078125 -0.09375 6.75 -1.296875 C 6.46875 -2.328125 6.375 -3.3125 6.421875 -4.28125 C 6.234375 -4.84375 6.1875 -5.5 6.140625 -5.953125 C 6.046875 -6.890625 5.90625 -7.78125 5.8125 -8.65625 C 5.6875 -10.296875 5.5 -11.875 5.3125 -13.453125 C 4.9375 -13.546875 4.609375 -13.6875 4.234375 -13.921875 C 2.984375 -14.765625 2.46875 -16.34375 3.265625 -17.6875 C 3.53125 -18.203125 4 -18.578125 4.515625 -18.8125 C 4.140625 -20.90625 3.71875 -22.953125 3.125 -24.953125 C 2.984375 -25.375 2.984375 -25.84375 3.125 -26.21875 C 2.328125 -27.046875 1.953125 -28.171875 2.28125 -29.609375 C 2.515625 -30.828125 4.28125 -31.421875 5.265625 -30.546875 C 7.078125 -30.03125 8.890625 -29.609375 10.703125 -29.1875 C 10.796875 -29.328125 10.890625 -29.421875 11.03125 -29.375 C 13.265625 -28.96875 15.453125 -28.640625 17.6875 -28.40625 C 18.8125 -28.265625 19.96875 -28.21875 21.09375 -28.125 C 22.03125 -28.078125 23.046875 -28.171875 23.9375 -27.890625 L 23.984375 -27.84375 C 25.375 -27.234375 26.21875 -25.46875 25.703125 -24.03125 C 25.515625 -22.53125 24.265625 -21.515625 22.8125 -21.46875 Z M 6 -29.1875 C 7.125 -28.734375 10.25 -28.640625 10.65625 -28.546875 L 11.40625 -28.546875 C 9.640625 -29.015625 7.171875 -29.375 5.453125 -30.03125 C 5.640625 -29.84375 5.859375 -29.421875 6 -29.1875 Z M 6 -29.1875 "/></g></g></g><g fill="#ffffff" fill-opacity="1"><g transform="translate(619.293841, 443.929821)"><g><path d="M 23.46875 -3.03125 C 23.1875 -5.359375 22.4375 -9.03125 21.984375 -11.21875 C 24.625 -13.875 23.09375 -18.109375 20.25 -19 C 19.96875 -21.703125 19.875 -24.359375 19.828125 -26.8125 C 19.78125 -27.46875 19.375 -28.03125 18.765625 -28.21875 C 18.484375 -29.796875 17.375 -31.015625 15.875 -31.390625 C 15.171875 -32.171875 14.109375 -32.734375 13.03125 -32.734375 C 10.0625 -32.734375 9.125 -30.03125 8.609375 -29.328125 C 7.453125 -28.3125 6.796875 -26.6875 6.28125 -25.46875 C 5.21875 -22.859375 4.703125 -21.375 4.09375 -18.859375 C 1.296875 -17.546875 1.25 -16.15625 0.890625 -15.640625 C 0.796875 -15.453125 -0.703125 -14.578125 -0.9375 -12.4375 C -1.15625 -10.0625 0.328125 -8.984375 1.71875 -7.453125 C 1.296875 -5.5 0.9375 -3.484375 0.65625 -1.390625 C 0.328125 0.984375 1.484375 2.984375 3.625 3.578125 C 7.40625 4.609375 8.703125 0.703125 8.75 0.703125 C 9.125 0.140625 9.59375 1.15625 10.390625 -1.625 C 12.296875 -2.09375 11.734375 -4.28125 12.390625 -7.78125 C 13.03125 -5.171875 13.921875 -1.25 14.90625 0.703125 C 15.125 1.15625 16.34375 2.890625 16.8125 3.359375 C 18.578125 4.84375 21.140625 4.140625 21.796875 1.484375 C 23.5625 0.5625 23.65625 -1.625 23.46875 -3.03125 Z M 18.203125 -1.953125 C 17.328125 -2.234375 15.546875 -9.96875 15.171875 -11.546875 L 11.6875 -11.5 C 11.03125 -8.84375 10.515625 -6.1875 10.34375 -3.453125 C 10.34375 -2.9375 9.546875 -2.9375 9.59375 -3.453125 C 9.828125 -6.140625 10.25 -8.890625 11.078125 -11.5 L 10.65625 -11.5 C 10.109375 -9.3125 9.3125 -4.75 9.3125 -4.75 L 9.078125 -2.75 C 8.703125 1.296875 3.171875 0.703125 3.71875 -3.484375 C 4.09375 -6.140625 4.5625 -8.75 5.21875 -11.359375 C 4.796875 -11.3125 4.375 -11.265625 4 -11.265625 C 4.046875 -11.359375 4.09375 -11.5 4.046875 -11.640625 C 1.15625 -12.390625 1.15625 -17.234375 6.515625 -18.0625 C 7.125 -21 7.875 -23.9375 9.03125 -26.6875 C 9.828125 -28.453125 10.703125 -31.203125 12.984375 -31.25 C 13.78125 -31.296875 14.671875 -30.78125 15 -30.03125 C 16.296875 -29.9375 17.28125 -29.0625 17.375 -27.609375 C 17.5 -25.84375 17.6875 -24.03125 17.875 -22.25 C 17.921875 -22.203125 17.921875 -22.203125 17.96875 -22.203125 C 18.015625 -23.75 18.109375 -25.28125 18.296875 -26.765625 C 18.34375 -27.234375 18.578125 -20.484375 18.90625 -17.78125 C 22.296875 -17.375 22.8125 -13.359375 20.34375 -11.78125 C 20.90625 -9.125 21.703125 -5.546875 22.03125 -2.84375 C 22.53125 1.203125 19.234375 1.25 18.203125 -1.953125 Z M 12.34375 -17.328125 C 12.9375 -17.421875 13.546875 -17.453125 14.15625 -17.5 C 13.96875 -18.625 13.78125 -19.78125 13.640625 -20.953125 C 13.171875 -19.78125 12.71875 -18.53125 12.34375 -17.328125 Z M 12.34375 -17.328125 "/></g></g></g><g fill="#ffffff" fill-opacity="1"><g transform="translate(643.084432, 443.929821)"><g><path d="M 22.859375 -28.59375 C 22.8125 -28.734375 22.8125 -28.875 22.765625 -29.015625 C 22.53125 -29.84375 22.25 -30.96875 21.421875 -31.75 C 21 -32.171875 20.390625 -32.453125 19.75 -32.453125 C 19.609375 -32.453125 19.46875 -32.40625 19.328125 -32.40625 C 18.625 -32.6875 17.875 -32.875 17.140625 -32.875 C 16.8125 -32.875 16.53125 -32.828125 16.25 -32.78125 C 15.921875 -32.96875 15.59375 -33.0625 15.171875 -33.0625 C 14.671875 -33.0625 14.15625 -32.875 13.828125 -32.5 C 13.453125 -32.125 13.265625 -31.65625 13.3125 -31.109375 L 13.3125 -30.78125 C 12.890625 -30.734375 12.484375 -30.5 12.203125 -30.21875 C 11.828125 -29.84375 11.640625 -29.375 11.6875 -28.828125 C 11.78125 -25.5625 11.546875 -22.15625 11.03125 -18.765625 L 10.890625 -19.421875 C 10.4375 -21.84375 9.875 -24.4375 9.171875 -27 C 8.28125 -30.21875 6.328125 -32.125 3.859375 -32.3125 L 3.578125 -32.3125 C 2.46875 -32.3125 1.4375 -31.796875 0.84375 -30.921875 C 0.5625 -30.546875 0.421875 -30.078125 0.328125 -29.609375 C -0.09375 -29.375 -0.515625 -29.0625 -0.796875 -28.640625 C -1.34375 -27.84375 -1.484375 -26.8125 -1.25 -25.84375 C -1.25 -25.5625 -1.25 -25.234375 -1.203125 -24.859375 C -1.34375 -24.53125 -1.4375 -24.171875 -1.390625 -23.84375 C -1.203125 -22.625 -0.9375 -21.421875 -0.65625 -20.25 L -0.234375 -18.4375 C 0.140625 -16.625 0.515625 -14.8125 0.796875 -13.078125 C 1.125 -11.359375 1.390625 -9.59375 1.578125 -7.828125 L 1.671875 -7.3125 L 1.8125 -6.09375 C 1.8125 -5.734375 1.859375 -5.40625 1.90625 -5.03125 L 1.953125 -4.9375 C 2.046875 -3.953125 2.09375 -3.21875 2.046875 -2.46875 C 2 -1.390625 2.46875 -0.46875 3.265625 0.09375 C 3.40625 0.46875 3.484375 0.796875 3.578125 1.125 C 4.140625 2.703125 5.546875 3.71875 7.125 3.71875 C 7.78125 3.71875 8.375 3.578125 8.9375 3.265625 C 9.125 3.21875 9.3125 3.125 9.453125 3.03125 C 9.734375 2.984375 9.96875 2.890625 10.15625 2.796875 L 10.25 2.75 C 10.4375 2.609375 10.65625 2.46875 10.890625 2.28125 C 11.3125 2.1875 11.734375 1.953125 12.0625 1.625 C 13.171875 0.515625 14.203125 -0.75 15.125 -2.140625 L 15.5 -2.703125 C 15.921875 -3.265625 16.34375 -3.8125 16.765625 -4.421875 C 17.1875 -5.03125 17.59375 -5.734375 18.015625 -6.5625 L 18.15625 -6.75 C 18.296875 -6.984375 18.390625 -7.21875 18.53125 -7.5 C 18.625 -7.59375 18.671875 -7.734375 18.71875 -7.828125 C 19.46875 -9.546875 20.25 -11.3125 20.953125 -13.125 C 21.75 -15.09375 22.15625 -17.234375 22.53125 -19.046875 C 22.953125 -21.28125 23.140625 -23.28125 23.1875 -25.1875 C 23.1875 -26.21875 23.1875 -27.46875 22.859375 -28.59375 Z M 21.703125 -25.234375 C 21.703125 -23.234375 21.46875 -21.28125 21.09375 -19.328125 C 20.71875 -17.453125 20.296875 -15.453125 19.609375 -13.6875 C 18.90625 -11.921875 18.109375 -10.15625 17.375 -8.421875 C 17.328125 -8.328125 17.28125 -8.28125 17.28125 -8.1875 C 17.09375 -7.875 16.90625 -7.546875 16.765625 -7.21875 C 16.390625 -6.5625 15.96875 -5.859375 15.546875 -5.21875 C 14.296875 -3.40625 8.234375 3.078125 6.609375 -1.625 C 6.421875 -2.140625 6.28125 -2.65625 6.140625 -3.171875 C 5.546875 -3.40625 5.125 -3.90625 5.125 -4.703125 C 5.171875 -5.59375 5.125 -6.515625 5.03125 -7.453125 C 5.03125 -7.5 5.03125 -7.59375 4.984375 -7.640625 C 4.9375 -7.921875 4.9375 -8.1875 4.9375 -8.421875 C 4.84375 -9.078125 4.75 -9.6875 4.703125 -10.34375 C 4.46875 -12.109375 4.1875 -13.875 3.859375 -15.640625 C 3.53125 -17.421875 3.21875 -19.234375 2.84375 -21 C 2.46875 -22.765625 1.953125 -24.53125 1.71875 -26.3125 C 1.671875 -26.5 1.90625 -26.59375 2 -26.453125 L 2.421875 -25.5625 C 1.859375 -27.09375 0.84375 -31.0625 3.71875 -30.875 C 6 -30.6875 7.21875 -28.59375 7.78125 -26.640625 C 8.421875 -24.171875 8.984375 -21.609375 9.453125 -19.09375 C 9.828125 -17.375 11.03125 -10.34375 11.171875 -9.6875 C 12.203125 -12.484375 13.078125 -15.359375 13.6875 -18.296875 C 14.484375 -22.53125 14.90625 -26.859375 14.765625 -31.15625 C 14.765625 -31.75 15.640625 -31.75 15.6875 -31.15625 C 16.015625 -23.515625 14.671875 -15.546875 11.40625 -8.5625 C 11.453125 -8.515625 11.5 -8.140625 11.5 -8.0625 C 15.6875 -15.921875 16.296875 -23.5625 16.25 -31.296875 C 17.328125 -31.515625 18.34375 -31.34375 19.234375 -30.828125 C 19.5625 -31.0625 20.0625 -31.015625 20.390625 -30.734375 C 21.046875 -30.078125 21.234375 -29.0625 21.46875 -28.171875 C 21.703125 -27.28125 21.75 -26.171875 21.703125 -25.234375 Z M 21.703125 -25.234375 "/></g></g></g><g fill="#ffffff" fill-opacity="1"><g transform="translate(668.641605, 450.574282)"><g><path d="M 1.90625 -4.6875 C 3.359375 -4.6875 4.40625 -5.734375 5.265625 -6.71875 C 6.203125 -7.875 7.0625 -9.09375 7.9375 -10.3125 C 8.5625 -11.296875 9.265625 -12.328125 9.90625 -13.3125 C 10.53125 -14.296875 11.171875 -15.28125 11.8125 -16.265625 C 11.875 -16.453125 12.046875 -16.671875 12.21875 -16.96875 C 12.390625 -17.25 12.5 -17.546875 12.5 -17.71875 C 12.5 -17.78125 12.453125 -17.890625 12.390625 -17.953125 C 12.28125 -18.125 12.109375 -18.1875 11.875 -18.1875 C 11.703125 -18.1875 11.515625 -18.125 11.40625 -18.015625 C 11.34375 -17.953125 11.296875 -17.828125 11.296875 -17.78125 C 11.234375 -17.71875 11.171875 -17.609375 11.125 -17.546875 L 7.640625 -12.328125 C 6.953125 -11.171875 3.421875 -6.203125 2.140625 -6.203125 C 1.90625 -6.203125 1.734375 -6.421875 1.671875 -6.828125 L 1.671875 -7.234375 C 1.625 -8.625 1.734375 -10.078125 1.96875 -11.46875 L 2.3125 -12.90625 C 2.4375 -13.3125 2.65625 -13.546875 3.015625 -13.609375 C 3.296875 -13.671875 3.53125 -13.78125 3.765625 -13.84375 C 4 -13.890625 4.234375 -13.953125 4.453125 -14.078125 C 6.015625 -15 7.640625 -16.390625 8.171875 -18.234375 C 8.5625 -19.453125 8.21875 -20.265625 7.0625 -20.78125 C 6.546875 -21.078125 6.140625 -21.078125 5.5 -21.078125 C 5.03125 -21.078125 4.578125 -20.90625 4.046875 -20.609375 C 3.59375 -20.265625 3.25 -19.921875 2.953125 -19.625 C 2.265625 -18.9375 1.671875 -18.0625 1.21875 -17.203125 C -0.34375 -14.015625 -1.046875 -10.71875 -0.8125 -7.296875 L -0.640625 -6.375 C -0.34375 -5.21875 0.8125 -4.6875 1.90625 -4.6875 Z M 3.1875 -14.828125 C 3.015625 -14.875 3.015625 -15 3.0625 -15.171875 C 3.421875 -16.328125 5.15625 -19.859375 6.421875 -19.859375 C 6.65625 -19.859375 6.828125 -19.75 6.890625 -19.453125 L 6.890625 -19.34375 C 6.890625 -17.71875 4.921875 -15.40625 3.421875 -14.828125 C 3.359375 -14.765625 3.25 -14.765625 3.1875 -14.828125 Z M 3.1875 -14.828125 "/></g></g></g><g fill="#ffffff" fill-opacity="1"><g transform="translate(678.251588, 450.574282)"><g><path d="M 2.953125 -1.859375 C 4.75 -1.859375 6.3125 -4.40625 6.953125 -6.015625 C 8.046875 -8.171875 9.09375 -10.421875 9.953125 -12.734375 C 10.1875 -13.375 10.421875 -13.953125 10.71875 -14.59375 C 11 -15.234375 11.234375 -15.859375 11.515625 -16.5 C 11.578125 -16.671875 11.703125 -16.84375 11.75 -17.03125 C 11.8125 -17.140625 11.875 -17.3125 11.921875 -17.484375 C 11.984375 -17.65625 11.875 -17.78125 11.703125 -17.953125 C 11.578125 -18.015625 11.40625 -18.0625 11.234375 -18.0625 C 10.359375 -18.0625 9.84375 -16.671875 9.609375 -16.046875 C 9.4375 -15.640625 9.265625 -15.171875 9.09375 -14.765625 C 8.921875 -14.359375 8.796875 -13.890625 8.625 -13.484375 C 7.46875 -10.421875 5.796875 -6.3125 3.765625 -3.765625 C 3.59375 -3.59375 3.46875 -3.46875 3.359375 -3.421875 C 3.25 -3.421875 3.1875 -3.421875 3.125 -3.46875 C 3.0625 -3.53125 3.015625 -3.59375 3.015625 -3.640625 C 3.015625 -3.703125 3.015625 -3.765625 2.953125 -3.828125 C 2.71875 -4.453125 2.71875 -4.984375 2.71875 -5.609375 C 2.484375 -9.78125 2.953125 -13.78125 3.828125 -17.78125 C 3.875 -18.1875 4.109375 -18.46875 4.34375 -18.875 C 6.71875 -21.828125 11.34375 -28.03125 12.21875 -31.796875 C 12.328125 -32.421875 12.390625 -33.0625 12.328125 -33.578125 C 12.15625 -34.625 11.46875 -35.203125 10.359375 -35.328125 C 8.5625 -35.328125 7.8125 -34.34375 6.890625 -33 C 2.78125 -27.046875 0.171875 -15.0625 0.171875 -7.578125 C 0.109375 -6.71875 0.234375 -5.5625 0.40625 -4.34375 C 0.40625 -3.015625 1.046875 -2.140625 2.375 -1.90625 C 2.484375 -1.859375 2.65625 -1.859375 2.953125 -1.859375 Z M 5.21875 -22.8125 L 5.15625 -22.875 C 5.15625 -22.9375 5.15625 -23.046875 5.15625 -23.109375 C 5.09375 -23.15625 5.09375 -23.21875 5.15625 -23.28125 C 6.140625 -26.984375 7.40625 -30.28125 9.671875 -33.359375 C 9.84375 -33.53125 10.3125 -33.9375 10.484375 -33.9375 C 10.59375 -33.9375 10.71875 -33.875 10.765625 -33.703125 L 10.765625 -33.1875 C 10.65625 -30.625 7.296875 -25.1875 5.734375 -23.21875 C 5.609375 -23.046875 5.5 -22.9375 5.328125 -22.8125 Z M 5.21875 -22.8125 "/></g></g></g><g fill="#ffffff" fill-opacity="1"><g transform="translate(686.819527, 450.574282)"><g><path d="M 9.203125 -5.5 C 9.78125 -5.5 10.3125 -5.734375 10.828125 -6.203125 C 11.296875 -6.59375 11.703125 -7 12.109375 -7.46875 C 12.6875 -8.21875 13.265625 -9.09375 13.890625 -9.953125 L 16.328125 -13.78125 C 16.625 -14.1875 16.84375 -14.65625 17.140625 -15.109375 C 17.375 -15.578125 17.609375 -16.046875 17.890625 -16.5 C 18.0625 -16.796875 18.125 -17.078125 18.1875 -17.25 C 18.1875 -17.25 18.1875 -17.3125 18.1875 -17.484375 C 18.125 -17.78125 17.890625 -17.890625 17.484375 -17.890625 C 17.3125 -17.890625 17.203125 -17.828125 17.140625 -17.71875 C 16.90625 -17.484375 16.734375 -17.203125 16.625 -16.90625 C 15.40625 -14.59375 12.28125 -9.671875 10.421875 -7.8125 C 10.25 -7.640625 10.078125 -7.53125 9.90625 -7.40625 C 9.734375 -7.234375 9.546875 -7.125 9.328125 -7 C 9.265625 -7 9.265625 -7 9.265625 -7 C 9.265625 -6.953125 9.265625 -6.953125 9.203125 -6.953125 C 9.03125 -6.953125 8.921875 -7.0625 8.796875 -7.234375 C 8.625 -7.875 8.796875 -8.515625 8.859375 -9.15625 C 9.265625 -11.0625 9.609375 -12.859375 10.3125 -14.65625 C 10.765625 -15.75 11.234375 -16.84375 11.640625 -17.953125 C 11.921875 -18.359375 12.859375 -20.96875 12.859375 -21.25 C 12.90625 -21.546875 12.796875 -21.71875 12.5625 -21.828125 C 12.390625 -22 12.21875 -22.0625 11.984375 -22.0625 C 11.703125 -22.0625 11.46875 -21.953125 11.296875 -21.65625 C 11.0625 -21.25 10.828125 -20.96875 10.59375 -20.671875 L 8.859375 -18.1875 C 8.6875 -18.015625 8.5625 -17.890625 8.453125 -17.828125 C 8.453125 -17.828125 8.390625 -17.828125 8.21875 -17.828125 L 7.9375 -18.46875 C 7.234375 -19.578125 6.25 -20.09375 5.03125 -20.09375 C 4.28125 -20.09375 3.53125 -19.859375 2.84375 -19.34375 C 2.375 -18.9375 1.96875 -18.53125 1.5625 -17.890625 C 1.328125 -17.484375 1.09375 -17.140625 0.875 -16.796875 C 0.640625 -16.390625 0.40625 -15.984375 0.171875 -15.578125 C -0.515625 -14.25 -0.875 -12.796875 -0.875 -11.234375 C -0.6875 -9.84375 0.34375 -9.09375 1.671875 -8.921875 L 2.03125 -8.921875 C 2.4375 -8.921875 2.78125 -9.03125 3.015625 -9.203125 C 4.109375 -10.140625 4.984375 -11 5.90625 -12.109375 C 6.078125 -12.28125 6.203125 -12.390625 6.375 -12.5625 L 6.484375 -12.5625 C 6.59375 -12.453125 6.65625 -12.390625 6.65625 -12.390625 C 6.65625 -12.328125 6.65625 -12.21875 6.65625 -12.15625 C 6.59375 -12.046875 6.59375 -11.921875 6.59375 -11.875 C 6.546875 -11.40625 6.421875 -10.9375 6.375 -10.484375 C 6.25 -10.015625 6.203125 -9.546875 6.140625 -9.03125 C 6.140625 -7.234375 7.1875 -5.5 9.203125 -5.5 Z M 2.03125 -10.890625 C 1.859375 -10.9375 1.796875 -11.171875 1.796875 -11.46875 C 2.078125 -13.546875 4.234375 -19 6.078125 -19 C 6.3125 -19 6.484375 -18.875 6.59375 -18.640625 C 6.78125 -18.421875 6.828125 -18.234375 6.890625 -18.125 C 6.953125 -17.71875 7.1875 -17.4375 7.640625 -17.25 C 7.8125 -17.203125 7.875 -17.03125 7.8125 -16.796875 C 7.8125 -16.796875 7.765625 -16.734375 7.703125 -16.671875 C 6.375 -14.875 5.09375 -13.3125 3.46875 -11.75 C 3.296875 -11.578125 3.125 -11.46875 2.953125 -11.34375 C 2.78125 -11.234375 2.546875 -11.125 2.375 -10.9375 C 2.3125 -10.890625 2.203125 -10.890625 2.03125 -10.890625 Z M 2.03125 -10.890625 "/></g></g></g><g fill="#ffffff" fill-opacity="1"><g transform="translate(702.102873, 450.574282)"><g><path d="M 2.03125 0.234375 C 4.109375 0.234375 5.96875 -2.3125 6.3125 -4.34375 C 6.71875 -6.140625 6.828125 -7.8125 6.203125 -9.609375 C 6.015625 -10.1875 6.203125 -10.65625 6.59375 -11.0625 C 6.71875 -11.125 6.828125 -11.234375 6.890625 -11.34375 C 7.765625 -12.21875 8.6875 -13.09375 9.546875 -13.953125 C 10.421875 -14.765625 11.296875 -15.640625 12.15625 -16.5 C 12.28125 -16.671875 12.453125 -16.84375 12.6875 -17.078125 C 12.859375 -17.375 12.859375 -17.546875 12.5625 -17.65625 C 12.390625 -17.78125 12.21875 -17.828125 11.984375 -17.828125 C 11.8125 -17.828125 11.640625 -17.78125 11.46875 -17.609375 L 6.59375 -12.796875 C 6.375 -12.5625 6.078125 -12.328125 5.796875 -12.109375 C 5.734375 -12.046875 5.609375 -11.984375 5.5625 -11.984375 C 5.03125 -11.984375 3.640625 -16.734375 3.59375 -16.84375 C 3.421875 -17.484375 3.359375 -18.1875 3.421875 -18.9375 C 3.359375 -19.6875 3.421875 -20.390625 3.703125 -21.015625 C 4 -21.890625 4.40625 -22.578125 5.265625 -22.984375 C 5.328125 -23.046875 5.390625 -23.046875 5.4375 -23.046875 C 5.609375 -23.046875 5.796875 -22.984375 5.84375 -22.8125 C 6.140625 -22.234375 6.203125 -21.71875 6.078125 -21.25 C 5.90625 -20.15625 5.796875 -19.171875 5.5 -18.1875 C 5.4375 -18.015625 5.390625 -17.78125 5.390625 -17.609375 C 5.328125 -17.375 5.328125 -17.140625 5.265625 -16.96875 C 5.21875 -16.671875 5.328125 -16.453125 5.671875 -16.390625 C 5.734375 -16.390625 5.796875 -16.390625 5.84375 -16.390625 C 5.90625 -16.328125 5.90625 -16.328125 5.96875 -16.328125 C 6.25 -16.328125 6.484375 -16.5 6.59375 -16.796875 L 6.78125 -17.140625 C 7.40625 -18.640625 7.765625 -20.203125 7.765625 -21.765625 C 7.640625 -22.75 7.1875 -23.390625 6.421875 -23.6875 C 6.140625 -23.859375 5.796875 -23.96875 5.5 -24.03125 C 5.21875 -24.140625 4.921875 -24.203125 4.578125 -24.203125 C 4.046875 -24.203125 3.46875 -23.96875 2.953125 -23.5625 C 2.03125 -22.8125 1.5 -21.828125 1.328125 -20.671875 C 1.09375 -19.171875 1.15625 -17.71875 1.5625 -16.328125 C 2.03125 -14.65625 2.65625 -12.96875 3.296875 -11.34375 C 3.828125 -9.84375 3.9375 -10.3125 2.890625 -9.09375 C 1.671875 -7.640625 0.6875 -6.140625 -0.171875 -4.578125 C -0.234375 -4.34375 -0.34375 -4.109375 -0.46875 -3.875 C -0.578125 -3.640625 -0.6875 -3.421875 -0.75 -3.1875 C -1.15625 -1.796875 -0.40625 -0.46875 0.984375 0.0625 C 1.328125 0.171875 1.671875 0.234375 2.03125 0.234375 Z M 1.734375 -0.921875 C 1.5625 -0.921875 1.390625 -0.984375 1.28125 -1.15625 C 0.921875 -1.5625 0.8125 -2.078125 0.875 -2.71875 C 0.875 -3.9375 2.78125 -6.71875 3.59375 -7.640625 C 3.640625 -7.8125 3.765625 -7.8125 3.9375 -7.765625 C 4 -7.703125 4.046875 -7.578125 4.046875 -7.53125 C 4.109375 -7.359375 4.171875 -7.125 4.171875 -6.890625 C 4.171875 -6.65625 4.171875 -6.375 4.109375 -6.078125 C 4.109375 -5.328125 4 -4.578125 3.765625 -3.765625 C 3.59375 -3.015625 2.546875 -0.921875 1.734375 -0.921875 Z M 1.734375 -0.921875 "/></g></g></g><g fill="#ffffff" fill-opacity="1"><g transform="translate(695.733835, 459.254493)"><g><path d="M 9.78125 -5.90625 L 7.546875 0 L 6.796875 0 L 4.9375 -4.84375 L 3.0625 0 L 2.3125 0 L 0.09375 -5.90625 L 0.859375 -5.90625 L 2.703125 -0.890625 L 4.609375 -5.90625 L 5.296875 -5.90625 L 7.171875 -0.890625 L 9.0625 -5.90625 Z M 9.78125 -5.90625 "/></g></g></g><g fill="#ffffff" fill-opacity="1"><g transform="translate(705.600747, 459.254493)"><g><path d="M 6.25 -2.703125 L 1.3125 -2.703125 C 1.351562 -2.085938 1.585938 -1.59375 2.015625 -1.21875 C 2.441406 -0.84375 2.984375 -0.65625 3.640625 -0.65625 C 4.003906 -0.65625 4.335938 -0.71875 4.640625 -0.84375 C 4.953125 -0.976562 5.222656 -1.171875 5.453125 -1.421875 L 5.890625 -0.90625 C 5.628906 -0.59375 5.300781 -0.351562 4.90625 -0.1875 C 4.519531 -0.0195312 4.09375 0.0625 3.625 0.0625 C 3.007812 0.0625 2.46875 -0.0664062 2 -0.328125 C 1.53125 -0.585938 1.164062 -0.945312 0.90625 -1.40625 C 0.644531 -1.863281 0.515625 -2.378906 0.515625 -2.953125 C 0.515625 -3.523438 0.640625 -4.039062 0.890625 -4.5 C 1.140625 -4.957031 1.484375 -5.3125 1.921875 -5.5625 C 2.359375 -5.820312 2.851562 -5.953125 3.40625 -5.953125 C 3.945312 -5.953125 4.4375 -5.820312 4.875 -5.5625 C 5.3125 -5.3125 5.648438 -4.957031 5.890625 -4.5 C 6.140625 -4.050781 6.265625 -3.535156 6.265625 -2.953125 Z M 3.40625 -5.265625 C 2.832031 -5.265625 2.351562 -5.082031 1.96875 -4.71875 C 1.582031 -4.351562 1.363281 -3.878906 1.3125 -3.296875 L 5.5 -3.296875 C 5.445312 -3.878906 5.226562 -4.351562 4.84375 -4.71875 C 4.457031 -5.082031 3.976562 -5.265625 3.40625 -5.265625 Z M 3.40625 -5.265625 "/></g></g></g><g fill="#ffffff" fill-opacity="1"><g transform="translate(712.380739, 459.254493)"><g><path d="M 4.15625 -5.953125 C 4.707031 -5.953125 5.207031 -5.828125 5.65625 -5.578125 C 6.113281 -5.328125 6.46875 -4.972656 6.71875 -4.515625 C 6.96875 -4.054688 7.09375 -3.535156 7.09375 -2.953125 C 7.09375 -2.367188 6.96875 -1.847656 6.71875 -1.390625 C 6.46875 -0.929688 6.113281 -0.570312 5.65625 -0.3125 C 5.207031 -0.0625 4.707031 0.0625 4.15625 0.0625 C 3.664062 0.0625 3.222656 -0.0390625 2.828125 -0.25 C 2.429688 -0.46875 2.113281 -0.773438 1.875 -1.171875 L 1.875 0 L 1.109375 0 L 1.109375 -8.328125 L 1.90625 -8.328125 L 1.90625 -4.78125 C 2.15625 -5.164062 2.472656 -5.457031 2.859375 -5.65625 C 3.242188 -5.851562 3.675781 -5.953125 4.15625 -5.953125 Z M 4.09375 -0.65625 C 4.507812 -0.65625 4.882812 -0.75 5.21875 -0.9375 C 5.5625 -1.125 5.828125 -1.394531 6.015625 -1.75 C 6.203125 -2.101562 6.296875 -2.503906 6.296875 -2.953125 C 6.296875 -3.398438 6.203125 -3.800781 6.015625 -4.15625 C 5.828125 -4.507812 5.5625 -4.78125 5.21875 -4.96875 C 4.882812 -5.15625 4.507812 -5.25 4.09375 -5.25 C 3.675781 -5.25 3.300781 -5.15625 2.96875 -4.96875 C 2.632812 -4.78125 2.375 -4.507812 2.1875 -4.15625 C 2 -3.800781 1.90625 -3.398438 1.90625 -2.953125 C 1.90625 -2.503906 2 -2.101562 2.1875 -1.75 C 2.375 -1.394531 2.632812 -1.125 2.96875 -0.9375 C 3.300781 -0.75 3.675781 -0.65625 4.09375 -0.65625 Z M 4.09375 -0.65625 "/></g></g></g><g fill="#ffffff" fill-opacity="1"><g transform="translate(571.865305, 405.585948)"><g><path d="M 3.125 -14.25 L 3.125 -10.6875 C 3.125 -10.28125 3.113281 -9.882812 3.09375 -9.5 C 3.070312 -9.113281 3.054688 -8.816406 3.046875 -8.609375 L 3.125 -8.609375 C 3.394531 -9.054688 3.789062 -9.4375 4.3125 -9.75 C 4.832031 -10.0625 5.492188 -10.21875 6.296875 -10.21875 C 7.554688 -10.21875 8.5625 -9.78125 9.3125 -8.90625 C 10.0625 -8.039062 10.4375 -6.75 10.4375 -5.03125 C 10.4375 -3.894531 10.265625 -2.941406 9.921875 -2.171875 C 9.578125 -1.398438 9.09375 -0.8125 8.46875 -0.40625 C 7.851562 -0.0078125 7.117188 0.1875 6.265625 0.1875 C 5.472656 0.1875 4.820312 0.0390625 4.3125 -0.25 C 3.800781 -0.550781 3.410156 -0.914062 3.140625 -1.34375 L 3.015625 -1.34375 L 2.703125 0 L 1.609375 0 L 1.609375 -14.25 Z M 6.0625 -8.9375 C 5.332031 -8.9375 4.753906 -8.796875 4.328125 -8.515625 C 3.898438 -8.234375 3.59375 -7.804688 3.40625 -7.234375 C 3.21875 -6.660156 3.125 -5.9375 3.125 -5.0625 L 3.125 -4.984375 C 3.125 -3.722656 3.332031 -2.753906 3.75 -2.078125 C 4.175781 -1.410156 4.945312 -1.078125 6.0625 -1.078125 C 6.988281 -1.078125 7.6875 -1.421875 8.15625 -2.109375 C 8.625 -2.796875 8.859375 -3.773438 8.859375 -5.046875 C 8.859375 -6.335938 8.628906 -7.304688 8.171875 -7.953125 C 7.710938 -8.609375 7.007812 -8.9375 6.0625 -8.9375 Z M 6.0625 -8.9375 "/></g></g></g><g fill="#ffffff" fill-opacity="1"><g transform="translate(583.349807, 405.585948)"><g><path d="M 0.015625 -10.046875 L 1.65625 -10.046875 L 3.859375 -4.21875 C 3.992188 -3.875 4.113281 -3.546875 4.21875 -3.234375 C 4.332031 -2.921875 4.429688 -2.617188 4.515625 -2.328125 C 4.597656 -2.035156 4.664062 -1.757812 4.71875 -1.5 L 4.78125 -1.5 C 4.863281 -1.800781 4.984375 -2.195312 5.140625 -2.6875 C 5.304688 -3.1875 5.476562 -3.695312 5.65625 -4.21875 L 7.765625 -10.046875 L 9.40625 -10.046875 L 5.03125 1.46875 C 4.800781 2.09375 4.53125 2.632812 4.21875 3.09375 C 3.90625 3.550781 3.53125 3.898438 3.09375 4.140625 C 2.65625 4.390625 2.125 4.515625 1.5 4.515625 C 1.21875 4.515625 0.960938 4.5 0.734375 4.46875 C 0.515625 4.4375 0.328125 4.398438 0.171875 4.359375 L 0.171875 3.140625 C 0.304688 3.160156 0.46875 3.179688 0.65625 3.203125 C 0.851562 3.234375 1.054688 3.25 1.265625 3.25 C 1.640625 3.25 1.96875 3.175781 2.25 3.03125 C 2.53125 2.894531 2.769531 2.6875 2.96875 2.40625 C 3.164062 2.132812 3.335938 1.804688 3.484375 1.421875 L 4.046875 0.015625 Z M 0.015625 -10.046875 "/></g></g></g></svg>