<svg xmlns="http://www.w3.org/2000/svg" xmlns:xlink="http://www.w3.org/1999/xlink" width="1920" zoomAndPan="magnify" viewBox="0 0 1440 809.999993" height="1080" preserveAspectRatio="xMidYMid meet" version="1.0"><defs><g/><clipPath id="83af817b6a"><path d="M 0 292 L 1439.742188 292 L 1439.742188 612.597656 L 0 612.597656 Z M 0 292 " clip-rule="nonzero"/></clipPath></defs><g clip-path="url(#83af817b6a)"><path fill="#f26f63" d="M -40.757812 309.449219 L -5.382812 324.75 C 29.992188 340.214844 100.738281 370.816406 171.15625 367.03125 C 241.738281 363.25 311.824219 324.75 382.40625 308.296875 C 452.824219 291.84375 523.574219 297.4375 593.992188 308.625 C 664.574219 319.8125 734.660156 336.925781 805.242188 333.796875 C 875.660156 330.835938 946.40625 307.804688 1016.824219 320.472656 C 1087.40625 332.976562 1157.496094 381.347656 1228.078125 382.664062 C 1298.496094 383.980469 1369.242188 338.570312 1404.617188 315.699219 L 1439.988281 292.996094 L 1439.988281 612.179688 L 1404.617188 612.179688 C 1369.242188 612.179688 1298.496094 612.179688 1228.078125 612.179688 C 1157.496094 612.179688 1087.40625 612.179688 1016.824219 612.179688 C 946.40625 612.179688 875.660156 612.179688 805.242188 612.179688 C 734.660156 612.179688 664.574219 612.179688 593.992188 612.179688 C 523.574219 612.179688 452.824219 612.179688 382.40625 612.179688 C 311.824219 612.179688 241.738281 612.179688 171.15625 612.179688 C 100.738281 612.179688 29.992188 612.179688 -5.382812 612.179688 L -40.757812 612.179688 Z M -40.757812 309.449219 " fill-opacity="1" fill-rule="nonzero"/></g><g fill="#ffffff" fill-opacity="1"><g transform="translate(181.436293, 480.157382)"><g><path d="M 22.265625 0 L 22.265625 -0.75 C 15.890625 -0.75 15.4375 -6.015625 15.4375 -20.640625 L 15.4375 -36.453125 C 15.4375 -39.9375 16.78125 -42.984375 20.640625 -42.984375 C 25.90625 -42.984375 31.765625 -36.453125 40.828125 -36.453125 C 46.6875 -36.453125 50.328125 -40.234375 50.328125 -44.609375 L 49.59375 -44.609375 C 49.59375 -42.015625 46.921875 -40.390625 44.09375 -40.390625 C 37.5625 -40.390625 31.40625 -44.984375 24.046875 -44.984375 C 19.59375 -44.984375 16.328125 -42.609375 15.4375 -40.609375 L 15.4375 -53.59375 C 15.4375 -68.21875 15.890625 -73.484375 22.265625 -73.484375 L 22.265625 -74.234375 L 2.234375 -74.234375 L 2.234375 -73.484375 C 8.609375 -73.484375 9.0625 -68.21875 9.0625 -53.59375 L 9.0625 -20.640625 C 9.0625 -6.015625 8.609375 -0.75 2.234375 -0.75 L 2.234375 0 Z M 45.734375 -73.484375 C 52.109375 -73.484375 52.5625 -68.21875 52.5625 -53.59375 L 52.5625 -20.640625 C 52.5625 -6.015625 52.109375 -0.75 45.734375 -0.75 L 45.734375 0 L 65.765625 0 L 65.765625 -0.75 C 59.390625 -0.75 58.9375 -6.015625 58.9375 -20.640625 L 58.9375 -53.59375 C 58.9375 -68.21875 59.390625 -73.484375 65.765625 -73.484375 L 65.765625 -74.234375 L 45.734375 -74.234375 Z M 45.734375 -73.484375 "/></g></g></g><g fill="#ffffff" fill-opacity="1"><g transform="translate(249.435419, 480.157382)"><g><path d="M 2.234375 -73.484375 C 8.609375 -73.484375 9.0625 -68.21875 9.0625 -53.59375 L 9.0625 -20.640625 C 9.0625 -6.015625 8.609375 -0.75 2.234375 -0.75 L 2.234375 0 L 22.265625 0 L 22.265625 -0.75 C 15.890625 -0.75 15.4375 -6.015625 15.4375 -20.640625 L 15.4375 -53.59375 C 15.4375 -68.21875 15.890625 -73.484375 22.265625 -73.484375 L 22.265625 -74.234375 L 2.234375 -74.234375 Z M 2.234375 -73.484375 "/></g></g></g><g fill="#ffffff" fill-opacity="1"><g transform="translate(273.932921, 480.157382)"><g><path d="M 4.453125 -56.421875 C 4.453125 -32.0625 52.265625 -38.375 52.265625 -16.03125 C 52.265625 -7.796875 43.71875 0.15625 32.890625 0.15625 C 15.21875 0.15625 5.5 -17.515625 5.5 -17.515625 L 4.75 -17.515625 L 4.75 -7.578125 C 10.25 -3.484375 18.9375 1.484375 28.734375 1.484375 C 45.875 1.484375 56.5625 -8.765625 56.5625 -19.078125 C 56.5625 -45.0625 9.65625 -37.859375 9.65625 -58.203125 C 9.65625 -66.4375 17.21875 -74.828125 31.03125 -74.828125 C 46.921875 -74.828125 51.4375 -62.359375 51.4375 -62.359375 L 52.1875 -62.359375 L 52.1875 -72.296875 C 46.46875 -74.234375 40.15625 -75.71875 31.03125 -75.71875 C 13.875 -75.71875 4.453125 -66.734375 4.453125 -56.421875 Z M 4.453125 -56.421875 "/></g></g></g><g fill="#ffffff" fill-opacity="1"><g transform="translate(334.953973, 480.157382)"><g><path d="M 2.234375 -74.234375 L 2.234375 -64.21875 L 2.96875 -64.21875 C 2.96875 -64.4375 2.890625 -64.21875 2.890625 -64.515625 C 2.890625 -69.484375 12.25 -73.484375 25.015625 -73.484375 L 25.015625 -20.640625 C 25.015625 -6.015625 24.578125 -0.75 18.1875 -0.75 L 18.1875 0 L 37.5625 0 L 37.5625 -0.75 C 31.171875 -0.75 31.328125 -6.015625 31.328125 -20.640625 L 31.328125 -73.484375 C 44.09375 -73.484375 53.453125 -69.484375 53.453125 -64.515625 C 53.453125 -64.21875 53.375 -64.4375 53.375 -64.21875 L 54.109375 -64.21875 L 54.109375 -74.234375 Z M 2.234375 -74.234375 "/></g></g></g><g fill="#ffffff" fill-opacity="1"><g transform="translate(391.298225, 480.157382)"><g><path d="M 4.453125 -37.125 C 4.453125 -14.84375 19 1.484375 37.484375 1.484375 C 55.96875 1.484375 70.515625 -14.84375 70.515625 -37.125 C 70.515625 -59.390625 55.96875 -75.71875 37.484375 -75.71875 C 19 -75.71875 4.453125 -59.390625 4.453125 -37.125 Z M 37.484375 -74.828125 C 52.859375 -74.828125 63.84375 -58.796875 63.84375 -37.125 C 63.84375 -15.4375 51.8125 0.59375 37.484375 0.59375 C 23.15625 0.59375 11.140625 -15.4375 11.140625 -37.125 C 11.140625 -58.796875 22.125 -74.828125 37.484375 -74.828125 Z M 35.921875 -80.171875 C 39.640625 -80.171875 44.609375 -82.171875 44.609375 -85.21875 C 44.609375 -86.265625 43.875 -87.21875 42.53125 -87.21875 C 39.046875 -87.21875 39.046875 -80.921875 32.65625 -80.921875 L 30.28125 -80.921875 L 30.28125 -80.171875 Z M 35.921875 -80.171875 "/></g></g></g><g fill="#ffffff" fill-opacity="1"><g transform="translate(466.275426, 480.157382)"><g><path d="M 2.234375 0 L 22.203125 0 L 22.203125 -0.75 C 15.8125 -0.75 15.359375 -6.015625 15.359375 -20.640625 L 15.359375 -72.296875 C 19.890625 -73.9375 23.453125 -74.6875 28.953125 -74.6875 C 42.765625 -74.6875 51.4375 -67.109375 51.4375 -54.78125 C 51.4375 -45.875 45.4375 -36.75 36.15625 -36.75 C 29.25 -36.75 25.828125 -40.984375 21.453125 -40.984375 C 20.125 -40.984375 18.859375 -40.234375 18.859375 -38.453125 C 18.859375 -33.40625 26.71875 -33.109375 33.921875 -22.265625 C 45.65625 -4.671875 47.734375 0 51.140625 0 L 62.5 0 L 62.5 -0.75 C 54.046875 -0.75 47.140625 -13.953125 41.28125 -23.09375 C 35.265625 -32.4375 19.59375 -33.484375 19.59375 -38.3125 C 19.59375 -40.015625 20.859375 -40.234375 21.75 -40.234375 C 24.875 -40.234375 29.625 -35.484375 36.59375 -35.484375 C 49.515625 -35.484375 57.828125 -44.6875 57.828125 -54.859375 C 57.828125 -66.953125 49 -75.71875 33.1875 -75.71875 C 24.578125 -75.71875 19.296875 -74.234375 11.140625 -74.234375 L 2.234375 -74.234375 L 2.234375 -73.484375 C 8.609375 -73.484375 9.0625 -68.21875 9.0625 -53.59375 L 9.0625 -20.640625 C 9.0625 -6.015625 8.609375 -0.75 2.234375 -0.75 Z M 2.234375 0 "/></g></g></g><g fill="#ffffff" fill-opacity="1"><g transform="translate(531.008237, 480.157382)"><g><path d="M 2.234375 -73.484375 C 8.609375 -73.484375 9.0625 -68.21875 9.0625 -53.59375 L 9.0625 -20.640625 C 9.0625 -6.015625 8.609375 -0.75 2.234375 -0.75 L 2.234375 0 L 22.265625 0 L 22.265625 -0.75 C 15.890625 -0.75 15.4375 -6.015625 15.4375 -20.640625 L 15.4375 -53.59375 C 15.4375 -68.21875 15.890625 -73.484375 22.265625 -73.484375 L 22.265625 -74.234375 L 2.234375 -74.234375 Z M 2.234375 -73.484375 "/></g></g></g><g fill="#ffffff" fill-opacity="1"><g transform="translate(555.50572, 480.157382)"><g><path d="M 2.234375 -12.984375 C 2.234375 -5.265625 7.125 1.484375 15.734375 1.484375 C 30.515625 1.484375 39.203125 -11.578125 39.203125 -29.625 C 39.203125 -33.1875 39.046875 -36.15625 38.75 -38.53125 L 47.953125 -14.25 C 50.78125 -6.75 51.140625 -0.75 40.6875 -0.75 L 40.6875 0 L 65.03125 0 L 65.03125 -0.75 C 60.5 -0.75 58.125 -4.828125 54.859375 -12.984375 L 31.109375 -75.71875 L 30.359375 -75.71875 C 25.6875 -63.390625 22.9375 -56.046875 18.40625 -44.09375 C 17.671875 -42.171875 18.03125 -40.15625 20.125 -40.15625 C 24.34375 -40.15625 26.578125 -47.953125 30.140625 -47.953125 C 31.109375 -47.953125 31.921875 -47.359375 31.921875 -45.953125 C 31.921875 -38.234375 2.234375 -31.25 2.234375 -12.984375 Z M 8.53125 -14.40625 C 8.53125 -32.734375 32.734375 -35.859375 32.734375 -45.796875 C 32.734375 -47.734375 31.703125 -48.703125 30.28125 -48.703125 C 26.359375 -48.703125 23.609375 -40.90625 20.1875 -40.90625 C 19 -40.90625 18.40625 -41.796875 19.375 -44.390625 L 27.90625 -67.109375 L 36.890625 -43.421875 C 38.234375 -39.046875 38.453125 -34.96875 38.453125 -29.46875 C 38.453125 -17.296875 32.59375 -2.078125 20.1875 -2.078125 C 12.921875 -2.078125 8.53125 -7.421875 8.53125 -14.40625 Z M 8.53125 -14.40625 "/></g></g></g><g fill="#ffffff" fill-opacity="1"><g transform="translate(620.535455, 480.157382)"><g/></g></g><g fill="#ffffff" fill-opacity="1"><g transform="translate(646.517671, 480.157382)"><g><path d="M 2.234375 0 L 8.171875 0 C 15.953125 0 22.34375 1.484375 28.875 1.484375 C 51.734375 1.484375 62.578125 -16.78125 62.578125 -37.125 C 62.578125 -57.453125 51.734375 -75.71875 28.875 -75.71875 C 22.34375 -75.71875 15.953125 -74.234375 8.171875 -74.234375 L 2.234375 -74.234375 L 2.234375 -73.484375 C 8.609375 -73.484375 9.0625 -68.21875 9.0625 -53.59375 L 9.0625 -20.640625 C 9.0625 -6.015625 8.609375 -0.75 2.234375 -0.75 Z M 15.359375 -72.59375 C 19.671875 -73.9375 23.984375 -74.6875 28.796875 -74.6875 C 47.140625 -74.6875 56.203125 -57.390625 56.203125 -37.125 C 56.203125 -16.84375 47.140625 0.453125 28.796875 0.453125 C 23.984375 0.453125 19.671875 -0.296875 15.359375 -1.640625 Z M 15.359375 -72.59375 "/></g></g></g><g fill="#ffffff" fill-opacity="1"><g transform="translate(713.551738, 480.157382)"><g><path d="M 2.234375 -12.984375 C 2.234375 -5.265625 7.125 1.484375 15.734375 1.484375 C 30.515625 1.484375 39.203125 -11.578125 39.203125 -29.625 C 39.203125 -33.1875 39.046875 -36.15625 38.75 -38.53125 L 47.953125 -14.25 C 50.78125 -6.75 51.140625 -0.75 40.6875 -0.75 L 40.6875 0 L 65.03125 0 L 65.03125 -0.75 C 60.5 -0.75 58.125 -4.828125 54.859375 -12.984375 L 31.109375 -75.71875 L 30.359375 -75.71875 C 25.6875 -63.390625 22.9375 -56.046875 18.40625 -44.09375 C 17.671875 -42.171875 18.03125 -40.15625 20.125 -40.15625 C 24.34375 -40.15625 26.578125 -47.953125 30.140625 -47.953125 C 31.109375 -47.953125 31.921875 -47.359375 31.921875 -45.953125 C 31.921875 -38.234375 2.234375 -31.25 2.234375 -12.984375 Z M 8.53125 -14.40625 C 8.53125 -32.734375 32.734375 -35.859375 32.734375 -45.796875 C 32.734375 -47.734375 31.703125 -48.703125 30.28125 -48.703125 C 26.359375 -48.703125 23.609375 -40.90625 20.1875 -40.90625 C 19 -40.90625 18.40625 -41.796875 19.375 -44.390625 L 27.90625 -67.109375 L 36.890625 -43.421875 C 38.234375 -39.046875 38.453125 -34.96875 38.453125 -29.46875 C 38.453125 -17.296875 32.59375 -2.078125 20.1875 -2.078125 C 12.921875 -2.078125 8.53125 -7.421875 8.53125 -14.40625 Z M 8.53125 -14.40625 "/></g></g></g><g fill="#ffffff" fill-opacity="1"><g transform="translate(778.581472, 480.157382)"><g><path d="M 4.453125 -56.421875 C 4.453125 -32.0625 52.265625 -38.375 52.265625 -16.03125 C 52.265625 -7.796875 43.71875 0.15625 32.890625 0.15625 C 15.21875 0.15625 5.5 -17.515625 5.5 -17.515625 L 4.75 -17.515625 L 4.75 -7.578125 C 10.25 -3.484375 18.9375 1.484375 28.734375 1.484375 C 45.875 1.484375 56.5625 -8.765625 56.5625 -19.078125 C 56.5625 -45.0625 9.65625 -37.859375 9.65625 -58.203125 C 9.65625 -66.4375 17.21875 -74.828125 31.03125 -74.828125 C 46.921875 -74.828125 51.4375 -62.359375 51.4375 -62.359375 L 52.1875 -62.359375 L 52.1875 -72.296875 C 46.46875 -74.234375 40.15625 -75.71875 31.03125 -75.71875 C 13.875 -75.71875 4.453125 -66.734375 4.453125 -56.421875 Z M 4.453125 -56.421875 "/></g></g></g><g fill="#ffffff" fill-opacity="1"><g transform="translate(839.602542, 480.157382)"><g/></g></g><g fill="#ffffff" fill-opacity="1"><g transform="translate(865.584722, 480.157382)"><g><path d="M 2.234375 -74.234375 L 2.234375 -64.21875 L 2.96875 -64.21875 C 2.96875 -64.4375 2.890625 -64.21875 2.890625 -64.515625 C 2.890625 -69.484375 12.25 -73.484375 25.015625 -73.484375 L 25.015625 -20.640625 C 25.015625 -6.015625 24.578125 -0.75 18.1875 -0.75 L 18.1875 0 L 37.5625 0 L 37.5625 -0.75 C 31.171875 -0.75 31.328125 -6.015625 31.328125 -20.640625 L 31.328125 -73.484375 C 44.09375 -73.484375 53.453125 -69.484375 53.453125 -64.515625 C 53.453125 -64.21875 53.375 -64.4375 53.375 -64.21875 L 54.109375 -64.21875 L 54.109375 -74.234375 Z M 2.234375 -74.234375 "/></g></g></g><g fill="#ffffff" fill-opacity="1"><g transform="translate(921.928992, 480.157382)"><g><path d="M 2.234375 0 L 22.203125 0 L 22.203125 -0.75 C 15.8125 -0.75 15.359375 -6.015625 15.359375 -20.640625 L 15.359375 -72.296875 C 19.890625 -73.9375 23.453125 -74.6875 28.953125 -74.6875 C 42.765625 -74.6875 51.4375 -67.109375 51.4375 -54.78125 C 51.4375 -45.875 45.4375 -36.75 36.15625 -36.75 C 29.25 -36.75 25.828125 -40.984375 21.453125 -40.984375 C 20.125 -40.984375 18.859375 -40.234375 18.859375 -38.453125 C 18.859375 -33.40625 26.71875 -33.109375 33.921875 -22.265625 C 45.65625 -4.671875 47.734375 0 51.140625 0 L 62.5 0 L 62.5 -0.75 C 54.046875 -0.75 47.140625 -13.953125 41.28125 -23.09375 C 35.265625 -32.4375 19.59375 -33.484375 19.59375 -38.3125 C 19.59375 -40.015625 20.859375 -40.234375 21.75 -40.234375 C 24.875 -40.234375 29.625 -35.484375 36.59375 -35.484375 C 49.515625 -35.484375 57.828125 -44.6875 57.828125 -54.859375 C 57.828125 -66.953125 49 -75.71875 33.1875 -75.71875 C 24.578125 -75.71875 19.296875 -74.234375 11.140625 -74.234375 L 2.234375 -74.234375 L 2.234375 -73.484375 C 8.609375 -73.484375 9.0625 -68.21875 9.0625 -53.59375 L 9.0625 -20.640625 C 9.0625 -6.015625 8.609375 -0.75 2.234375 -0.75 Z M 2.234375 0 "/></g></g></g><g fill="#ffffff" fill-opacity="1"><g transform="translate(986.661766, 480.157382)"><g><path d="M 2.234375 -12.984375 C 2.234375 -5.265625 7.125 1.484375 15.734375 1.484375 C 30.515625 1.484375 39.203125 -11.578125 39.203125 -29.625 C 39.203125 -33.1875 39.046875 -36.15625 38.75 -38.53125 L 47.953125 -14.25 C 50.78125 -6.75 51.140625 -0.75 40.6875 -0.75 L 40.6875 0 L 65.03125 0 L 65.03125 -0.75 C 60.5 -0.75 58.125 -4.828125 54.859375 -12.984375 L 31.109375 -75.71875 L 30.359375 -75.71875 C 25.6875 -63.390625 22.9375 -56.046875 18.40625 -44.09375 C 17.671875 -42.171875 18.03125 -40.15625 20.125 -40.15625 C 24.34375 -40.15625 26.578125 -47.953125 30.140625 -47.953125 C 31.109375 -47.953125 31.921875 -47.359375 31.921875 -45.953125 C 31.921875 -38.234375 2.234375 -31.25 2.234375 -12.984375 Z M 8.53125 -14.40625 C 8.53125 -32.734375 32.734375 -35.859375 32.734375 -45.796875 C 32.734375 -47.734375 31.703125 -48.703125 30.28125 -48.703125 C 26.359375 -48.703125 23.609375 -40.90625 20.1875 -40.90625 C 19 -40.90625 18.40625 -41.796875 19.375 -44.390625 L 27.90625 -67.109375 L 36.890625 -43.421875 C 38.234375 -39.046875 38.453125 -34.96875 38.453125 -29.46875 C 38.453125 -17.296875 32.59375 -2.078125 20.1875 -2.078125 C 12.921875 -2.078125 8.53125 -7.421875 8.53125 -14.40625 Z M 8.53125 -14.40625 "/></g></g></g><g fill="#ffffff" fill-opacity="1"><g transform="translate(1051.691537, 480.157382)"><g><path d="M 2.234375 -74.234375 L 2.234375 -73.484375 C 8.609375 -73.484375 9.0625 -68.21875 9.0625 -53.59375 L 9.0625 -20.640625 C 9.0625 -6.015625 8.609375 -0.75 2.234375 -0.75 L 2.234375 0 L 22.265625 0 L 22.265625 -0.75 C 15.890625 -0.75 9.796875 -9.421875 9.796875 -31.03125 L 9.796875 -70.078125 L 56.796875 1.484375 L 57.53125 1.484375 L 57.53125 -53.59375 C 57.53125 -68.21875 57.984375 -73.484375 64.359375 -73.484375 L 64.359375 -74.234375 L 44.3125 -74.234375 L 44.3125 -73.484375 C 50.703125 -73.484375 56.796875 -64.8125 56.796875 -43.203125 L 56.796875 -10.84375 L 15.21875 -74.234375 Z M 2.234375 -74.234375 "/></g></g></g><g fill="#ffffff" fill-opacity="1"><g transform="translate(1118.28018, 480.157382)"><g><path d="M 35.859375 1.40625 L 33.484375 5.9375 L 34.078125 6.828125 C 34.671875 6.3125 35.5625 5.796875 36.59375 5.796875 C 40.828125 5.796875 40.015625 14.328125 34.4375 14.328125 C 33.84375 14.328125 33.109375 14.171875 32.734375 13.875 L 32.4375 14.46875 C 32.953125 14.921875 33.921875 15.296875 34.890625 15.296875 C 43.65625 15.296875 44.09375 4.90625 37.265625 4.90625 C 36.078125 4.90625 35.109375 5.265625 34.21875 5.9375 L 36.59375 1.484375 C 44.84375 1.484375 51.59375 0.59375 59.46875 -1.9375 L 59.46875 -11.875 L 58.640625 -11.875 C 58.640625 -11.875 53.96875 0.59375 37.484375 0.59375 C 23.15625 0.59375 11.140625 -15.4375 11.140625 -37.125 C 11.140625 -58.796875 22.125 -74.828125 37.484375 -74.828125 C 49.890625 -74.828125 55.90625 -69.5625 55.90625 -60.71875 C 55.90625 -49.890625 35.03125 -45.5 35.03125 -32.4375 C 35.03125 -29.03125 37.484375 -24.640625 41.5 -25.53125 C 40.015625 -26.796875 39.265625 -28.0625 39.265625 -30.359375 C 39.265625 -39.203125 60.28125 -44.6875 60.28125 -60.125 C 60.28125 -66.890625 54.484375 -75.71875 37.484375 -75.71875 C 19 -75.71875 4.453125 -59.390625 4.453125 -37.125 C 4.453125 -15.515625 18.1875 0.515625 35.859375 1.40625 Z M 35.859375 1.40625 "/></g></g></g><g fill="#ffffff" fill-opacity="1"><g transform="translate(1180.043562, 480.157382)"><g><path d="M 2.234375 -12.984375 C 2.234375 -5.265625 7.125 1.484375 15.734375 1.484375 C 30.515625 1.484375 39.203125 -11.578125 39.203125 -29.625 C 39.203125 -33.1875 39.046875 -36.15625 38.75 -38.53125 L 47.953125 -14.25 C 50.78125 -6.75 51.140625 -0.75 40.6875 -0.75 L 40.6875 0 L 65.03125 0 L 65.03125 -0.75 C 60.5 -0.75 58.125 -4.828125 54.859375 -12.984375 L 31.109375 -75.71875 L 30.359375 -75.71875 C 25.6875 -63.390625 22.9375 -56.046875 18.40625 -44.09375 C 17.671875 -42.171875 18.03125 -40.15625 20.125 -40.15625 C 24.34375 -40.15625 26.578125 -47.953125 30.140625 -47.953125 C 31.109375 -47.953125 31.921875 -47.359375 31.921875 -45.953125 C 31.921875 -38.234375 2.234375 -31.25 2.234375 -12.984375 Z M 8.53125 -14.40625 C 8.53125 -32.734375 32.734375 -35.859375 32.734375 -45.796875 C 32.734375 -47.734375 31.703125 -48.703125 30.28125 -48.703125 C 26.359375 -48.703125 23.609375 -40.90625 20.1875 -40.90625 C 19 -40.90625 18.40625 -41.796875 19.375 -44.390625 L 27.90625 -67.109375 L 36.890625 -43.421875 C 38.234375 -39.046875 38.453125 -34.96875 38.453125 -29.46875 C 38.453125 -17.296875 32.59375 -2.078125 20.1875 -2.078125 C 12.921875 -2.078125 8.53125 -7.421875 8.53125 -14.40625 Z M 8.53125 -14.40625 "/></g></g></g><g fill="#ffffff" fill-opacity="1"><g transform="translate(1245.073333, 480.157382)"><g><path d="M 4.453125 -56.421875 C 4.453125 -32.0625 52.265625 -38.375 52.265625 -16.03125 C 52.265625 -7.796875 43.71875 0.15625 32.890625 0.15625 C 15.21875 0.15625 5.5 -17.515625 5.5 -17.515625 L 4.75 -17.515625 L 4.75 -7.578125 C 10.25 -3.484375 18.9375 1.484375 28.734375 1.484375 C 45.875 1.484375 56.5625 -8.765625 56.5625 -19.078125 C 56.5625 -45.0625 9.65625 -37.859375 9.65625 -58.203125 C 9.65625 -66.4375 17.21875 -74.828125 31.03125 -74.828125 C 46.921875 -74.828125 51.4375 -62.359375 51.4375 -62.359375 L 52.1875 -62.359375 L 52.1875 -72.296875 C 46.46875 -74.234375 40.15625 -75.71875 31.03125 -75.71875 C 13.875 -75.71875 4.453125 -66.734375 4.453125 -56.421875 Z M 4.453125 -56.421875 "/></g></g></g></svg>