<svg xmlns="http://www.w3.org/2000/svg" xmlns:xlink="http://www.w3.org/1999/xlink" width="1080" zoomAndPan="magnify" viewBox="0 0 810 809.999993" height="1080" preserveAspectRatio="xMidYMid meet" version="1.0"><defs><g/></defs><g fill="#ff8033" fill-opacity="1"><g transform="translate(44.589104, 600.002444)"><g><path d="M 9.53125 -476.203125 C 55.234375 -374.765625 84.765625 -313.34375 127.140625 -216.671875 C 137.625 -192.859375 155.71875 -171.90625 176.671875 -171.90625 C 204.765625 -171.90625 219.046875 -184.296875 228.09375 -195.25 L 146.671875 0 L 263.8125 0 C 236.203125 -36.671875 228.578125 -81.4375 228.578125 -114.765625 C 228.578125 -187.140625 263.8125 -255.71875 289.53125 -316.203125 C 303.8125 -350.015625 345.25 -464.78125 384.765625 -473.828125 L 384.765625 -476.203125 L 245.25 -476.203125 L 245.25 -473.828125 C 274.296875 -468.578125 285.71875 -441.921875 285.71875 -408.109375 C 285.71875 -361.921875 263.34375 -279.0625 252.390625 -254.296875 C 233.8125 -211.90625 225.25 -208.578125 217.15625 -208.578125 C 202.859375 -208.578125 196.203125 -221.4375 177.140625 -264.765625 C 145.71875 -336.203125 118.578125 -392.390625 80.953125 -476.203125 Z M 9.53125 -476.203125 "/></g></g></g><g fill="#ff8033" fill-opacity="1"><g transform="translate(297.879188, 599.724374)"><g><path d="M 15.140625 -88.328125 C 15.140625 -35.84375 48.453125 10.09375 107.015625 10.09375 C 207.453125 10.09375 266.515625 -78.75 266.515625 -201.40625 C 266.515625 -225.625 265.5 -245.828125 263.484375 -261.96875 L 326.078125 -96.921875 C 345.265625 -45.9375 347.78125 -5.046875 276.609375 -5.046875 L 276.609375 0 L 442.171875 0 L 442.171875 -5.046875 C 411.390625 -5.046875 395.234375 -32.8125 373.015625 -88.328125 L 211.5 -514.84375 L 206.453125 -514.84375 C 174.65625 -431.0625 155.96875 -381.09375 125.1875 -299.828125 C 120.140625 -286.703125 122.65625 -273.078125 136.796875 -273.078125 C 165.5625 -273.078125 180.703125 -326.078125 204.9375 -326.078125 C 211.5 -326.078125 217.046875 -322.046875 217.046875 -312.453125 C 217.046875 -259.953125 15.140625 -212.5 15.140625 -88.328125 Z M 58.046875 -97.921875 C 58.046875 -222.609375 222.609375 -243.796875 222.609375 -311.4375 C 222.609375 -324.5625 215.53125 -331.125 205.9375 -331.125 C 179.1875 -331.125 160.515625 -278.125 137.296875 -278.125 C 129.21875 -278.125 125.1875 -284.1875 131.75 -301.84375 L 189.796875 -456.3125 L 250.875 -295.28125 C 259.953125 -265.5 261.46875 -237.75 261.46875 -200.390625 C 261.46875 -117.609375 221.59375 -14.140625 137.296875 -14.140625 C 87.828125 -14.140625 58.046875 -50.46875 58.046875 -97.921875 Z M 58.046875 -97.921875 "/></g></g></g><g fill="#ff8033" fill-opacity="1"><g transform="translate(121.209015, 748.729346)"><g><path d="M 4.78125 -29.359375 L 7.890625 -29.359375 L 7.890625 0 L 4.78125 0 Z M 4.78125 -29.359375 "/></g></g></g><g fill="#ff8033" fill-opacity="1"><g transform="translate(137.222766, 748.729346)"><g><path d="M 29.3125 -29.359375 L 29.3125 0 L 26.75 0 L 7.890625 -23.828125 L 7.890625 0 L 4.78125 0 L 4.78125 -29.359375 L 7.34375 -29.359375 L 26.25 -5.53125 L 26.25 -29.359375 Z M 29.3125 -29.359375 "/></g></g></g><g fill="#ff8033" fill-opacity="1"><g transform="translate(174.654262, 748.729346)"><g><path d="M 4.78125 -29.359375 L 16.734375 -29.359375 C 19.835938 -29.359375 22.578125 -28.734375 24.953125 -27.484375 C 27.328125 -26.242188 29.171875 -24.507812 30.484375 -22.28125 C 31.796875 -20.0625 32.453125 -17.523438 32.453125 -14.671875 C 32.453125 -11.828125 31.796875 -9.289062 30.484375 -7.0625 C 29.171875 -4.84375 27.328125 -3.109375 24.953125 -1.859375 C 22.578125 -0.617188 19.835938 0 16.734375 0 L 4.78125 0 Z M 16.5625 -2.6875 C 19.132812 -2.6875 21.382812 -3.195312 23.3125 -4.21875 C 25.25 -5.238281 26.742188 -6.648438 27.796875 -8.453125 C 28.859375 -10.253906 29.390625 -12.328125 29.390625 -14.671875 C 29.390625 -17.023438 28.859375 -19.101562 27.796875 -20.90625 C 26.742188 -22.707031 25.25 -24.117188 23.3125 -25.140625 C 21.382812 -26.160156 19.132812 -26.671875 16.5625 -26.671875 L 7.890625 -26.671875 L 7.890625 -2.6875 Z M 16.5625 -2.6875 "/></g></g></g><g fill="#ff8033" fill-opacity="1"><g transform="translate(212.630643, 748.729346)"><g><path d="M 23.1875 -7.84375 L 6.828125 -7.84375 L 3.3125 0 L 0.078125 0 L 13.5 -29.359375 L 16.5625 -29.359375 L 29.984375 0 L 26.71875 0 Z M 22.0625 -10.359375 L 15.015625 -26.125 L 7.96875 -10.359375 Z M 22.0625 -10.359375 "/></g></g></g><g fill="#ff8033" fill-opacity="1"><g transform="translate(246.038467, 748.729346)"><g><path d="M 14.84375 -10.15625 L 14.84375 0 L 11.78125 0 L 11.78125 -10.15625 L 0.046875 -29.359375 L 3.359375 -29.359375 L 13.421875 -12.875 L 23.484375 -29.359375 L 26.59375 -29.359375 Z M 14.84375 -10.15625 "/></g></g></g><g fill="#ff8033" fill-opacity="1"><g transform="translate(276.009374, 748.729346)"><g><path d="M 23.1875 -7.84375 L 6.828125 -7.84375 L 3.3125 0 L 0.078125 0 L 13.5 -29.359375 L 16.5625 -29.359375 L 29.984375 0 L 26.71875 0 Z M 22.0625 -10.359375 L 15.015625 -26.125 L 7.96875 -10.359375 Z M 22.0625 -10.359375 "/></g></g></g><g fill="#ff8033" fill-opacity="1"><g transform="translate(309.417207, 748.729346)"><g><path d="M 24.828125 0 L 18.109375 -9.4375 C 17.359375 -9.351562 16.578125 -9.3125 15.765625 -9.3125 L 7.890625 -9.3125 L 7.890625 0 L 4.78125 0 L 4.78125 -29.359375 L 15.765625 -29.359375 C 19.515625 -29.359375 22.453125 -28.460938 24.578125 -26.671875 C 26.703125 -24.878906 27.765625 -22.421875 27.765625 -19.296875 C 27.765625 -17.003906 27.179688 -15.066406 26.015625 -13.484375 C 24.859375 -11.898438 23.203125 -10.757812 21.046875 -10.0625 L 28.21875 0 Z M 15.6875 -11.953125 C 18.59375 -11.953125 20.8125 -12.59375 22.34375 -13.875 C 23.882812 -15.164062 24.65625 -16.972656 24.65625 -19.296875 C 24.65625 -21.671875 23.882812 -23.492188 22.34375 -24.765625 C 20.8125 -26.035156 18.59375 -26.671875 15.6875 -26.671875 L 7.890625 -26.671875 L 7.890625 -11.953125 Z M 15.6875 -11.953125 "/></g></g></g><g fill="#ff8033" fill-opacity="1"><g transform="translate(343.076517, 748.729346)"><g><path d="M 23.1875 -7.84375 L 6.828125 -7.84375 L 3.3125 0 L 0.078125 0 L 13.5 -29.359375 L 16.5625 -29.359375 L 29.984375 0 L 26.71875 0 Z M 22.0625 -10.359375 L 15.015625 -26.125 L 7.96875 -10.359375 Z M 22.0625 -10.359375 "/></g></g></g><g fill="#ff8033" fill-opacity="1"><g transform="translate(376.484349, 748.729346)"><g/></g></g><g fill="#ff8033" fill-opacity="1"><g transform="translate(390.821558, 748.729346)"><g><path d="M 23.1875 -7.84375 L 6.828125 -7.84375 L 3.3125 0 L 0.078125 0 L 13.5 -29.359375 L 16.5625 -29.359375 L 29.984375 0 L 26.71875 0 Z M 22.0625 -10.359375 L 15.015625 -26.125 L 7.96875 -10.359375 Z M 22.0625 -10.359375 "/></g></g></g><g fill="#ff8033" fill-opacity="1"><g transform="translate(424.229391, 748.729346)"><g><path d="M 7.890625 -26.671875 L 7.890625 -15.140625 L 23.0625 -15.140625 L 23.0625 -12.453125 L 7.890625 -12.453125 L 7.890625 0 L 4.78125 0 L 4.78125 -29.359375 L 24.90625 -29.359375 L 24.90625 -26.671875 Z M 7.890625 -26.671875 "/></g></g></g><g fill="#ff8033" fill-opacity="1"><g transform="translate(454.116472, 748.729346)"><g><path d="M 24.828125 0 L 18.109375 -9.4375 C 17.359375 -9.351562 16.578125 -9.3125 15.765625 -9.3125 L 7.890625 -9.3125 L 7.890625 0 L 4.78125 0 L 4.78125 -29.359375 L 15.765625 -29.359375 C 19.515625 -29.359375 22.453125 -28.460938 24.578125 -26.671875 C 26.703125 -24.878906 27.765625 -22.421875 27.765625 -19.296875 C 27.765625 -17.003906 27.179688 -15.066406 26.015625 -13.484375 C 24.859375 -11.898438 23.203125 -10.757812 21.046875 -10.0625 L 28.21875 0 Z M 15.6875 -11.953125 C 18.59375 -11.953125 20.8125 -12.59375 22.34375 -13.875 C 23.882812 -15.164062 24.65625 -16.972656 24.65625 -19.296875 C 24.65625 -21.671875 23.882812 -23.492188 22.34375 -24.765625 C 20.8125 -26.035156 18.59375 -26.671875 15.6875 -26.671875 L 7.890625 -26.671875 L 7.890625 -11.953125 Z M 15.6875 -11.953125 "/></g></g></g><g fill="#ff8033" fill-opacity="1"><g transform="translate(487.775782, 748.729346)"><g><path d="M 17.609375 0.25 C 14.703125 0.25 12.066406 -0.398438 9.703125 -1.703125 C 7.347656 -3.003906 5.503906 -4.785156 4.171875 -7.046875 C 2.847656 -9.304688 2.1875 -11.847656 2.1875 -14.671875 C 2.1875 -17.492188 2.847656 -20.035156 4.171875 -22.296875 C 5.503906 -24.566406 7.347656 -26.351562 9.703125 -27.65625 C 12.066406 -28.957031 14.703125 -29.609375 17.609375 -29.609375 C 20.515625 -29.609375 23.132812 -28.960938 25.46875 -27.671875 C 27.8125 -26.390625 29.648438 -24.609375 30.984375 -22.328125 C 32.328125 -20.046875 33 -17.492188 33 -14.671875 C 33 -11.847656 32.328125 -9.296875 30.984375 -7.015625 C 29.648438 -4.742188 27.8125 -2.960938 25.46875 -1.671875 C 23.132812 -0.390625 20.515625 0.25 17.609375 0.25 Z M 17.609375 -2.515625 C 19.929688 -2.515625 22.03125 -3.035156 23.90625 -4.078125 C 25.78125 -5.128906 27.25 -6.582031 28.3125 -8.4375 C 29.375 -10.300781 29.90625 -12.378906 29.90625 -14.671875 C 29.90625 -16.960938 29.375 -19.035156 28.3125 -20.890625 C 27.25 -22.753906 25.78125 -24.210938 23.90625 -25.265625 C 22.03125 -26.316406 19.929688 -26.84375 17.609375 -26.84375 C 15.296875 -26.84375 13.191406 -26.316406 11.296875 -25.265625 C 9.410156 -24.210938 7.929688 -22.753906 6.859375 -20.890625 C 5.785156 -19.035156 5.25 -16.960938 5.25 -14.671875 C 5.25 -12.378906 5.785156 -10.300781 6.859375 -8.4375 C 7.929688 -6.582031 9.410156 -5.128906 11.296875 -4.078125 C 13.191406 -3.035156 15.296875 -2.515625 17.609375 -2.515625 Z M 17.609375 -2.515625 "/></g></g></g><g fill="#ff8033" fill-opacity="1"><g transform="translate(526.297056, 748.729346)"><g/></g></g><g fill="#ff8033" fill-opacity="1"><g transform="translate(540.634265, 748.729346)"><g><path d="M 23.28125 -15.140625 C 25.207031 -14.722656 26.691406 -13.890625 27.734375 -12.640625 C 28.785156 -11.398438 29.3125 -9.800781 29.3125 -7.84375 C 29.3125 -5.320312 28.378906 -3.382812 26.515625 -2.03125 C 24.660156 -0.675781 21.914062 0 18.28125 0 L 4.78125 0 L 4.78125 -29.359375 L 17.453125 -29.359375 C 20.722656 -29.359375 23.257812 -28.703125 25.0625 -27.390625 C 26.863281 -26.078125 27.765625 -24.21875 27.765625 -21.8125 C 27.765625 -20.1875 27.363281 -18.804688 26.5625 -17.671875 C 25.769531 -16.546875 24.675781 -15.703125 23.28125 -15.140625 Z M 7.890625 -26.796875 L 7.890625 -16.140625 L 17.234375 -16.140625 C 19.609375 -16.140625 21.4375 -16.59375 22.71875 -17.5 C 24.007812 -18.414062 24.65625 -19.738281 24.65625 -21.46875 C 24.65625 -23.207031 24.007812 -24.53125 22.71875 -25.4375 C 21.4375 -26.34375 19.609375 -26.796875 17.234375 -26.796875 Z M 18.25 -2.5625 C 20.875 -2.5625 22.859375 -3.007812 24.203125 -3.90625 C 25.546875 -4.800781 26.21875 -6.195312 26.21875 -8.09375 C 26.21875 -11.757812 23.5625 -13.59375 18.25 -13.59375 L 7.890625 -13.59375 L 7.890625 -2.5625 Z M 18.25 -2.5625 "/></g></g></g><g fill="#ff8033" fill-opacity="1"><g transform="translate(575.592892, 748.729346)"><g><path d="M 25.546875 -2.6875 L 25.546875 0 L 4.78125 0 L 4.78125 -29.359375 L 24.90625 -29.359375 L 24.90625 -26.671875 L 7.890625 -26.671875 L 7.890625 -16.234375 L 23.0625 -16.234375 L 23.0625 -13.59375 L 7.890625 -13.59375 L 7.890625 -2.6875 Z M 25.546875 -2.6875 "/></g></g></g><g fill="#ff8033" fill-opacity="1"><g transform="translate(606.988871, 748.729346)"><g><path d="M 4.78125 -29.359375 L 7.890625 -29.359375 L 7.890625 -2.6875 L 24.328125 -2.6875 L 24.328125 0 L 4.78125 0 Z M 4.78125 -29.359375 "/></g></g></g><g fill="#ff8033" fill-opacity="1"><g transform="translate(635.031785, 748.729346)"><g><path d="M 25.546875 -2.6875 L 25.546875 0 L 4.78125 0 L 4.78125 -29.359375 L 24.90625 -29.359375 L 24.90625 -26.671875 L 7.890625 -26.671875 L 7.890625 -16.234375 L 23.0625 -16.234375 L 23.0625 -13.59375 L 7.890625 -13.59375 L 7.890625 -2.6875 Z M 25.546875 -2.6875 "/></g></g></g><g fill="#ff8033" fill-opacity="1"><g transform="translate(666.427764, 748.729346)"><g><path d="M 25.953125 -2.6875 L 25.953125 0 L 1.890625 0 L 1.890625 -2.140625 L 21.34375 -26.671875 L 2.1875 -26.671875 L 2.1875 -29.359375 L 25.453125 -29.359375 L 25.453125 -27.21875 L 6.03125 -2.6875 Z M 25.953125 -2.6875 "/></g></g></g><g fill="#ff8033" fill-opacity="1"><g transform="translate(697.069278, 748.729346)"><g><path d="M 23.1875 -7.84375 L 6.828125 -7.84375 L 3.3125 0 L 0.078125 0 L 13.5 -29.359375 L 16.5625 -29.359375 L 29.984375 0 L 26.71875 0 Z M 22.0625 -10.359375 L 15.015625 -26.125 L 7.96875 -10.359375 Z M 22.0625 -10.359375 "/></g></g></g><g fill="#ff8033" fill-opacity="1"><g transform="translate(118.170333, 575.198492)"><g><path d="M 40.96875 19.34375 L 41.609375 17.96875 C 29.875 12.421875 33.640625 2.34375 46.34375 -24.5625 L 74.078125 -83.296875 L 49.75 -94.765625 L 49.109375 -93.40625 C 60.859375 -87.859375 57.078125 -77.78125 44.390625 -50.875 L 34.578125 -30.109375 C 21.875 -3.203125 16.484375 6.109375 4.734375 0.5625 L 4.09375 1.9375 Z M 66.8125 -108.609375 C 64.421875 -103.546875 66.578125 -97.515625 71.640625 -95.140625 C 76.6875 -92.75 82.71875 -94.90625 85.109375 -99.96875 C 87.484375 -105 85.328125 -111.046875 80.28125 -113.4375 C 75.21875 -115.8125 69.1875 -113.640625 66.8125 -108.609375 Z M 66.8125 -108.609375 "/></g></g></g></svg>