<svg xmlns="http://www.w3.org/2000/svg" xmlns:xlink="http://www.w3.org/1999/xlink" width="100" zoomAndPan="magnify" viewBox="0 0 75 74.999997" height="100" preserveAspectRatio="xMidYMid meet" version="1.0"><defs><g/></defs><g fill="#ffffff" fill-opacity="1"><g transform="translate(2.078736, 56.458039)"><g><path d="M 1 -49.828125 C 5.78125 -39.21875 8.875 -32.78125 13.296875 -22.671875 C 14.40625 -20.1875 16.296875 -17.984375 18.484375 -17.984375 C 21.421875 -17.984375 22.921875 -19.28125 23.875 -20.421875 L 15.34375 0 L 27.609375 0 C 24.71875 -3.84375 23.921875 -8.515625 23.921875 -12.015625 C 23.921875 -19.578125 27.609375 -26.75 30.296875 -33.078125 C 31.796875 -36.625 36.125 -48.625 40.265625 -49.578125 L 40.265625 -49.828125 L 25.65625 -49.828125 L 25.65625 -49.578125 C 28.703125 -49.03125 29.890625 -46.234375 29.890625 -42.703125 C 29.890625 -37.875 27.5625 -29.203125 26.40625 -26.609375 C 24.46875 -22.171875 23.5625 -21.828125 22.71875 -21.828125 C 21.234375 -21.828125 20.53125 -23.171875 18.53125 -27.703125 C 15.25 -35.171875 12.40625 -41.0625 8.46875 -49.828125 Z M 1 -49.828125 "/></g></g></g><g fill="#ffffff" fill-opacity="1"><g transform="translate(28.582462, 56.428945)"><g><path d="M 1.578125 -9.25 C 1.578125 -3.75 5.0625 1.0625 11.203125 1.0625 C 21.703125 1.0625 27.890625 -8.234375 27.890625 -21.078125 C 27.890625 -23.609375 27.78125 -25.71875 27.5625 -27.40625 L 34.109375 -10.140625 C 36.125 -4.8125 36.390625 -0.53125 28.9375 -0.53125 L 28.9375 0 L 46.265625 0 L 46.265625 -0.53125 C 43.046875 -0.53125 41.359375 -3.4375 39.03125 -9.25 L 22.125 -53.875 L 21.59375 -53.875 C 18.265625 -45.109375 16.3125 -39.875 13.09375 -31.375 C 12.5625 -30 12.828125 -28.578125 14.3125 -28.578125 C 17.328125 -28.578125 18.90625 -34.109375 21.4375 -34.109375 C 22.125 -34.109375 22.703125 -33.6875 22.703125 -32.6875 C 22.703125 -27.203125 1.578125 -22.234375 1.578125 -9.25 Z M 6.078125 -10.25 C 6.078125 -23.296875 23.296875 -25.515625 23.296875 -32.578125 C 23.296875 -33.953125 22.546875 -34.640625 21.546875 -34.640625 C 18.75 -34.640625 16.796875 -29.09375 14.359375 -29.09375 C 13.515625 -29.09375 13.09375 -29.734375 13.78125 -31.578125 L 19.859375 -47.75 L 26.25 -30.890625 C 27.203125 -27.78125 27.359375 -24.875 27.359375 -20.96875 C 27.359375 -12.3125 23.1875 -1.484375 14.359375 -1.484375 C 9.1875 -1.484375 6.078125 -5.28125 6.078125 -10.25 Z M 6.078125 -10.25 "/></g></g></g><g fill="#ffffff" fill-opacity="1"><g transform="translate(10.09067, 66.917845)"><g><path d="M 0.5 -3.078125 L 0.828125 -3.078125 L 0.828125 0 L 0.5 0 Z M 0.5 -3.078125 "/></g></g></g><g fill="#ffffff" fill-opacity="1"><g transform="translate(11.766631, 66.917845)"><g><path d="M 3.0625 -3.078125 L 3.0625 0 L 2.796875 0 L 0.828125 -2.5 L 0.828125 0 L 0.5 0 L 0.5 -3.078125 L 0.765625 -3.078125 L 2.75 -0.578125 L 2.75 -3.078125 Z M 3.0625 -3.078125 "/></g></g></g><g fill="#ffffff" fill-opacity="1"><g transform="translate(15.684236, 66.917845)"><g><path d="M 0.5 -3.078125 L 1.75 -3.078125 C 2.070312 -3.078125 2.359375 -3.007812 2.609375 -2.875 C 2.859375 -2.75 3.050781 -2.566406 3.1875 -2.328125 C 3.320312 -2.097656 3.390625 -1.832031 3.390625 -1.53125 C 3.390625 -1.238281 3.320312 -0.972656 3.1875 -0.734375 C 3.050781 -0.503906 2.859375 -0.320312 2.609375 -0.1875 C 2.359375 -0.0625 2.070312 0 1.75 0 L 0.5 0 Z M 1.734375 -0.28125 C 2.003906 -0.28125 2.238281 -0.332031 2.4375 -0.4375 C 2.644531 -0.539062 2.800781 -0.6875 2.90625 -0.875 C 3.019531 -1.070312 3.078125 -1.289062 3.078125 -1.53125 C 3.078125 -1.78125 3.019531 -2 2.90625 -2.1875 C 2.800781 -2.375 2.644531 -2.519531 2.4375 -2.625 C 2.238281 -2.738281 2.003906 -2.796875 1.734375 -2.796875 L 0.828125 -2.796875 L 0.828125 -0.28125 Z M 1.734375 -0.28125 "/></g></g></g><g fill="#ffffff" fill-opacity="1"><g transform="translate(19.658869, 66.917845)"><g><path d="M 2.421875 -0.828125 L 0.71875 -0.828125 L 0.34375 0 L 0.015625 0 L 1.40625 -3.078125 L 1.734375 -3.078125 L 3.140625 0 L 2.796875 0 Z M 2.3125 -1.078125 L 1.578125 -2.734375 L 0.828125 -1.078125 Z M 2.3125 -1.078125 "/></g></g></g><g fill="#ffffff" fill-opacity="1"><g transform="translate(23.155343, 66.917845)"><g><path d="M 1.546875 -1.0625 L 1.546875 0 L 1.234375 0 L 1.234375 -1.0625 L 0 -3.078125 L 0.34375 -3.078125 L 1.40625 -1.34375 L 2.453125 -3.078125 L 2.78125 -3.078125 Z M 1.546875 -1.0625 "/></g></g></g><g fill="#ffffff" fill-opacity="1"><g transform="translate(26.292101, 66.917845)"><g><path d="M 2.421875 -0.828125 L 0.71875 -0.828125 L 0.34375 0 L 0.015625 0 L 1.40625 -3.078125 L 1.734375 -3.078125 L 3.140625 0 L 2.796875 0 Z M 2.3125 -1.078125 L 1.578125 -2.734375 L 0.828125 -1.078125 Z M 2.3125 -1.078125 "/></g></g></g><g fill="#ffffff" fill-opacity="1"><g transform="translate(29.788576, 66.917845)"><g><path d="M 2.59375 0 L 1.890625 -0.984375 C 1.816406 -0.972656 1.738281 -0.96875 1.65625 -0.96875 L 0.828125 -0.96875 L 0.828125 0 L 0.5 0 L 0.5 -3.078125 L 1.65625 -3.078125 C 2.039062 -3.078125 2.34375 -2.984375 2.5625 -2.796875 C 2.789062 -2.609375 2.90625 -2.347656 2.90625 -2.015625 C 2.90625 -1.773438 2.84375 -1.570312 2.71875 -1.40625 C 2.601562 -1.238281 2.429688 -1.117188 2.203125 -1.046875 L 2.953125 0 Z M 1.640625 -1.25 C 1.941406 -1.25 2.171875 -1.316406 2.328125 -1.453125 C 2.492188 -1.585938 2.578125 -1.773438 2.578125 -2.015625 C 2.578125 -2.265625 2.492188 -2.457031 2.328125 -2.59375 C 2.171875 -2.726562 1.941406 -2.796875 1.640625 -2.796875 L 0.828125 -2.796875 L 0.828125 -1.25 Z M 1.640625 -1.25 "/></g></g></g><g fill="#ffffff" fill-opacity="1"><g transform="translate(33.311372, 66.917845)"><g><path d="M 2.421875 -0.828125 L 0.71875 -0.828125 L 0.34375 0 L 0.015625 0 L 1.40625 -3.078125 L 1.734375 -3.078125 L 3.140625 0 L 2.796875 0 Z M 2.3125 -1.078125 L 1.578125 -2.734375 L 0.828125 -1.078125 Z M 2.3125 -1.078125 "/></g></g></g><g fill="#ffffff" fill-opacity="1"><g transform="translate(36.807846, 66.917845)"><g/></g></g><g fill="#ffffff" fill-opacity="1"><g transform="translate(38.308337, 66.917845)"><g><path d="M 2.421875 -0.828125 L 0.71875 -0.828125 L 0.34375 0 L 0.015625 0 L 1.40625 -3.078125 L 1.734375 -3.078125 L 3.140625 0 L 2.796875 0 Z M 2.3125 -1.078125 L 1.578125 -2.734375 L 0.828125 -1.078125 Z M 2.3125 -1.078125 "/></g></g></g><g fill="#ffffff" fill-opacity="1"><g transform="translate(41.804811, 66.917845)"><g><path d="M 0.828125 -2.796875 L 0.828125 -1.578125 L 2.421875 -1.578125 L 2.421875 -1.296875 L 0.828125 -1.296875 L 0.828125 0 L 0.5 0 L 0.5 -3.078125 L 2.609375 -3.078125 L 2.609375 -2.796875 Z M 0.828125 -2.796875 "/></g></g></g><g fill="#ffffff" fill-opacity="1"><g transform="translate(44.932798, 66.917845)"><g><path d="M 2.59375 0 L 1.890625 -0.984375 C 1.816406 -0.972656 1.738281 -0.96875 1.65625 -0.96875 L 0.828125 -0.96875 L 0.828125 0 L 0.5 0 L 0.5 -3.078125 L 1.65625 -3.078125 C 2.039062 -3.078125 2.34375 -2.984375 2.5625 -2.796875 C 2.789062 -2.609375 2.90625 -2.347656 2.90625 -2.015625 C 2.90625 -1.773438 2.84375 -1.570312 2.71875 -1.40625 C 2.601562 -1.238281 2.429688 -1.117188 2.203125 -1.046875 L 2.953125 0 Z M 1.640625 -1.25 C 1.941406 -1.25 2.171875 -1.316406 2.328125 -1.453125 C 2.492188 -1.585938 2.578125 -1.773438 2.578125 -2.015625 C 2.578125 -2.265625 2.492188 -2.457031 2.328125 -2.59375 C 2.171875 -2.726562 1.941406 -2.796875 1.640625 -2.796875 L 0.828125 -2.796875 L 0.828125 -1.25 Z M 1.640625 -1.25 "/></g></g></g><g fill="#ffffff" fill-opacity="1"><g transform="translate(48.455596, 66.917845)"><g><path d="M 1.84375 0.03125 C 1.539062 0.03125 1.265625 -0.0351562 1.015625 -0.171875 C 0.765625 -0.304688 0.570312 -0.492188 0.4375 -0.734375 C 0.300781 -0.972656 0.234375 -1.238281 0.234375 -1.53125 C 0.234375 -1.832031 0.300781 -2.097656 0.4375 -2.328125 C 0.570312 -2.566406 0.765625 -2.753906 1.015625 -2.890625 C 1.265625 -3.023438 1.539062 -3.09375 1.84375 -3.09375 C 2.144531 -3.09375 2.414062 -3.023438 2.65625 -2.890625 C 2.90625 -2.765625 3.097656 -2.582031 3.234375 -2.34375 C 3.378906 -2.101562 3.453125 -1.832031 3.453125 -1.53125 C 3.453125 -1.238281 3.378906 -0.972656 3.234375 -0.734375 C 3.097656 -0.492188 2.90625 -0.304688 2.65625 -0.171875 C 2.414062 -0.0351562 2.144531 0.03125 1.84375 0.03125 Z M 1.84375 -0.265625 C 2.082031 -0.265625 2.300781 -0.316406 2.5 -0.421875 C 2.695312 -0.535156 2.847656 -0.6875 2.953125 -0.875 C 3.066406 -1.070312 3.125 -1.289062 3.125 -1.53125 C 3.125 -1.769531 3.066406 -1.988281 2.953125 -2.1875 C 2.847656 -2.382812 2.695312 -2.535156 2.5 -2.640625 C 2.300781 -2.753906 2.082031 -2.8125 1.84375 -2.8125 C 1.601562 -2.8125 1.382812 -2.753906 1.1875 -2.640625 C 0.988281 -2.535156 0.832031 -2.382812 0.71875 -2.1875 C 0.601562 -1.988281 0.546875 -1.769531 0.546875 -1.53125 C 0.546875 -1.289062 0.601562 -1.070312 0.71875 -0.875 C 0.832031 -0.6875 0.988281 -0.535156 1.1875 -0.421875 C 1.382812 -0.316406 1.601562 -0.265625 1.84375 -0.265625 Z M 1.84375 -0.265625 "/></g></g></g><g fill="#ffffff" fill-opacity="1"><g transform="translate(52.487256, 66.917845)"><g/></g></g><g fill="#ffffff" fill-opacity="1"><g transform="translate(53.987747, 66.917845)"><g><path d="M 2.4375 -1.578125 C 2.632812 -1.535156 2.785156 -1.445312 2.890625 -1.3125 C 3.003906 -1.1875 3.0625 -1.023438 3.0625 -0.828125 C 3.0625 -0.554688 2.960938 -0.347656 2.765625 -0.203125 C 2.578125 -0.0664062 2.296875 0 1.921875 0 L 0.5 0 L 0.5 -3.078125 L 1.828125 -3.078125 C 2.171875 -3.078125 2.4375 -3.003906 2.625 -2.859375 C 2.8125 -2.722656 2.90625 -2.53125 2.90625 -2.28125 C 2.90625 -2.113281 2.863281 -1.96875 2.78125 -1.84375 C 2.695312 -1.726562 2.582031 -1.640625 2.4375 -1.578125 Z M 0.828125 -2.8125 L 0.828125 -1.6875 L 1.796875 -1.6875 C 2.046875 -1.6875 2.238281 -1.734375 2.375 -1.828125 C 2.507812 -1.921875 2.578125 -2.0625 2.578125 -2.25 C 2.578125 -2.425781 2.507812 -2.5625 2.375 -2.65625 C 2.238281 -2.757812 2.046875 -2.8125 1.796875 -2.8125 Z M 1.90625 -0.265625 C 2.1875 -0.265625 2.394531 -0.3125 2.53125 -0.40625 C 2.675781 -0.5 2.75 -0.644531 2.75 -0.84375 C 2.75 -1.226562 2.46875 -1.421875 1.90625 -1.421875 L 0.828125 -1.421875 L 0.828125 -0.265625 Z M 1.90625 -0.265625 "/></g></g></g><g fill="#ffffff" fill-opacity="1"><g transform="translate(57.646532, 66.917845)"><g><path d="M 2.671875 -0.28125 L 2.671875 0 L 0.5 0 L 0.5 -3.078125 L 2.609375 -3.078125 L 2.609375 -2.796875 L 0.828125 -2.796875 L 0.828125 -1.703125 L 2.421875 -1.703125 L 2.421875 -1.421875 L 0.828125 -1.421875 L 0.828125 -0.28125 Z M 2.671875 -0.28125 "/></g></g></g><g fill="#ffffff" fill-opacity="1"><g transform="translate(60.932443, 66.917845)"><g><path d="M 0.5 -3.078125 L 0.828125 -3.078125 L 0.828125 -0.28125 L 2.546875 -0.28125 L 2.546875 0 L 0.5 0 Z M 0.5 -3.078125 "/></g></g></g><g fill="#ffffff" fill-opacity="1"><g transform="translate(63.867409, 66.917845)"><g><path d="M 2.671875 -0.28125 L 2.671875 0 L 0.5 0 L 0.5 -3.078125 L 2.609375 -3.078125 L 2.609375 -2.796875 L 0.828125 -2.796875 L 0.828125 -1.703125 L 2.421875 -1.703125 L 2.421875 -1.421875 L 0.828125 -1.421875 L 0.828125 -0.28125 Z M 2.671875 -0.28125 "/></g></g></g><g fill="#ffffff" fill-opacity="1"><g transform="translate(67.153319, 66.917845)"><g><path d="M 2.71875 -0.28125 L 2.71875 0 L 0.203125 0 L 0.203125 -0.21875 L 2.234375 -2.796875 L 0.234375 -2.796875 L 0.234375 -3.078125 L 2.671875 -3.078125 L 2.671875 -2.84375 L 0.625 -0.28125 Z M 2.71875 -0.28125 "/></g></g></g><g fill="#ffffff" fill-opacity="1"><g transform="translate(70.360268, 66.917845)"><g><path d="M 2.421875 -0.828125 L 0.71875 -0.828125 L 0.34375 0 L 0.015625 0 L 1.40625 -3.078125 L 1.734375 -3.078125 L 3.140625 0 L 2.796875 0 Z M 2.3125 -1.078125 L 1.578125 -2.734375 L 0.828125 -1.078125 Z M 2.3125 -1.078125 "/></g></g></g><g fill="#ffffff" fill-opacity="1"><g transform="translate(9.778117, 53.862608)"><g><path d="M 4.296875 2.03125 L 4.359375 1.890625 C 3.125 1.3125 3.515625 0.25 4.84375 -2.5625 L 7.75 -8.703125 L 5.203125 -9.90625 L 5.125 -9.765625 C 6.359375 -9.1875 5.96875 -8.140625 4.640625 -5.3125 L 3.609375 -3.140625 C 2.28125 -0.328125 1.71875 0.640625 0.484375 0.0625 L 0.421875 0.203125 Z M 6.984375 -11.375 C 6.75 -10.84375 6.953125 -10.203125 7.484375 -9.953125 C 8.015625 -9.703125 8.671875 -9.9375 8.90625 -10.46875 C 9.171875 -11 8.921875 -11.625 8.390625 -11.875 C 7.859375 -12.125 7.25 -11.90625 6.984375 -11.375 Z M 6.984375 -11.375 "/></g></g></g></svg>